<svg xmlns="http://www.w3.org/2000/svg" xmlns:xlink="http://www.w3.org/1999/xlink" width="728" height="432.509" viewBox="0 0 728 432.509">
  <defs>
    <clipPath id="clip-path">
      <rect id="Rectangle_24" data-name="Rectangle 24" width="728" height="432.509" fill="none"/>
    </clipPath>
    <filter id="Path_13" x="43.442" y="43.441" width="96.695" height="98.315" filterUnits="userSpaceOnUse">
      <feOffset input="SourceAlpha"/>
      <feGaussianBlur result="blur"/>
      <feFlood flood-opacity="0.161"/>
      <feComposite operator="in" in2="blur"/>
      <feComposite in="SourceGraphic"/>
    </filter>
  </defs>
  <g id="Repeat_Grid_1" data-name="Repeat Grid 1" clip-path="url(#clip-path)">
    <g id="Group_20" data-name="Group 20" transform="translate(37.51 43.441)">
      <ellipse id="Ellipse_2" data-name="Ellipse 2" cx="18.291" cy="3.049" rx="18.291" ry="3.049" transform="translate(35.988 382.208)" fill="#f2f2f2"/>
      <rect id="Rectangle_16" data-name="Rectangle 16" width="1.524" height="32.009" transform="translate(32.939 94.123)" fill="#f2f2f2"/>
      <rect id="Rectangle_17" data-name="Rectangle 17" width="9.146" height="315.522" transform="translate(49.706 73.546)" fill="#008a8a"/>
      <g transform="matrix(1, 0, 0, 1, -37.51, -43.44)" filter="url(#Path_13)">
        <path id="Path_13-2" data-name="Path 13" d="M924.819,293.065h83.741a6.478,6.478,0,0,0,6.428-7.281l-10.67-85.359a6.489,6.489,0,0,0-6.428-5.675h-62.4a6.489,6.489,0,0,0-6.428,5.675l-10.67,85.359a6.478,6.478,0,0,0,6.428,7.281Z" transform="translate(-874.9 -151.31)" fill="#b5d6d6"/>
      </g>
      <circle id="Ellipse_3" data-name="Ellipse 3" cx="5.335" cy="5.335" r="5.335" transform="translate(28.366 120.798)" fill="#008a8a"/>
      <path id="Path_14" data-name="Path 14" d="M196.79,577.271c3.85,13.357,15.09,22.711,26.82,30.651q2.456,1.664,4.914,3.251c.011,0,.023.015.034.02.076.05.158.1.229.152L229.8,612l-.184.083s-.181.1.017.015c.059-.024.12-.046.179-.072,6.813-2.747,13.747-5.7,18.968-10.845,5.416-5.346,8.582-13.729,5.648-20.751a13.407,13.407,0,0,0-1.448-2.606c-.238-.341-.494-.666-.762-.986a14.371,14.371,0,0,0-24.682,4.367c-.862-8.022,5.753-14.742,12.118-19.7s13.6-10.352,14.836-18.33a15.559,15.559,0,0,0-3.667-12.194c-.087-.105-.174-.21-.264-.312a20.973,20.973,0,0,0-13.48-7.232c-9.765-1.015-19.251,4.154-26.345,10.943C199.316,545.3,192.414,562.084,196.79,577.271Z" transform="translate(398.006 -272.904)" fill="#009797"/>
      <path id="Path_15" data-name="Path 15" d="M204.195,562.085a35.649,35.649,0,0,0-4.268,9.421,30.958,30.958,0,0,0-1.067,9.146,39.664,39.664,0,0,0,5.195,18.051,57.083,57.083,0,0,0,8.612,11.508q2.456,1.664,4.914,3.251c.011,0,.023.015.034.02.076.05.158.1.229.152l1.012.652s-.365.179-.167.1c.059-.024.12-.046.179-.072a31.277,31.277,0,0,1,23.165-34.2c-.238-.341-.494-.666-.762-.986a32.993,32.993,0,0,0-5.447,2.058A32.333,32.333,0,0,0,221.2,595.277a33.056,33.056,0,0,0-3.6,18.139c-.28-.254-.56-.513-.832-.77a57.945,57.945,0,0,1-12.888-16.761,36.9,36.9,0,0,1-3.864-17.458c.254-6.595,2.882-12.7,6.686-18.021a77.236,77.236,0,0,1,14.641-15.09,87.761,87.761,0,0,1,18.209-11.242.631.631,0,0,0,.318-.81.534.534,0,0,0-.264-.312.467.467,0,0,0-.405.018c-.8.37-1.6.745-2.392,1.136a88.759,88.759,0,0,0-18.339,12.1A71.4,71.4,0,0,0,204.195,562.085Z" transform="translate(408.957 -275.189)" fill="#fff"/>
      <path id="Path_16" data-name="Path 16" d="M240.8,638.25H198.607a3.264,3.264,0,0,0-3.239,3.669l5.376,43.012a3.269,3.269,0,0,0,3.239,2.859h31.441a3.269,3.269,0,0,0,3.239-2.859l5.376-43.01a3.264,3.264,0,0,0-3.239-3.669Z" transform="translate(409.581 -300.245)" fill="#b5d6d6"/>
      <circle id="Ellipse_4" data-name="Ellipse 4" cx="5.281" cy="5.281" r="5.281" transform="translate(507.527 377.312)" fill="#ccc"/>
      <circle id="Ellipse_5" data-name="Ellipse 5" cx="5.281" cy="5.281" r="5.281" transform="translate(173.971 377.312)" fill="#ccc"/>
      <path id="Path_17" data-name="Path 17" d="M394.083,573.685h82.728a14.538,14.538,0,0,0,14.522-14.522V502.838a14.538,14.538,0,0,0-14.522-14.522H394.083a14.538,14.538,0,0,0-14.522,14.522v56.326a14.538,14.538,0,0,0,14.522,14.522Z" transform="translate(21.914 -264.581)" fill="#b5d6d6"/>
      <path id="Path_18" data-name="Path 18" d="M540.168,574.263H622.9a14.538,14.538,0,0,0,14.519-14.522V503.416a14.538,14.538,0,0,0-14.522-14.522H540.168a14.538,14.538,0,0,0-14.522,14.522v56.326A14.538,14.538,0,0,0,540.168,574.263Z" transform="translate(-235.499 -264.718)" fill="#b5d6d6"/>
      <path id="Path_19" data-name="Path 19" d="M686.243,574.84h82.729a14.538,14.538,0,0,0,14.522-14.522V503.993a14.539,14.539,0,0,0-14.522-14.522H686.243a14.538,14.538,0,0,0-14.522,14.522v56.326a14.538,14.538,0,0,0,14.522,14.522Z" transform="translate(-492.909 -264.855)" fill="#b5d6d6"/>
      <rect id="Rectangle_18" data-name="Rectangle 18" width="364.36" height="76.128" transform="translate(161.65 306.025)" fill="#b5d6d6"/>
      <path id="Path_20" data-name="Path 20" d="M340.3,666.814h15.842c8.007,0,14.522-7.4,14.522-16.488V570.883H340.3Z" transform="translate(172.51 -284.221)" fill="#b5d6d6"/>
      <path id="Path_21" data-name="Path 21" d="M832.323,662.968h15.842V554.716H817.8v89.646C817.8,654.619,824.316,662.968,832.323,662.968Z" transform="translate(-668.913 -280.375)" fill="#b5d6d6"/>
      <path id="Path_22" data-name="Path 22" d="M380.138,604.657H491.913V580.9q-55.886-32.058-111.772,0Z" transform="translate(20.898 -282.79)" fill="#009797"/>
      <path id="Path_23" data-name="Path 23" d="M526.218,605.233H637.99V581.47q-55.886-32.057-111.772,0Z" transform="translate(-236.514 -282.926)" fill="#009797"/>
      <path id="Path_24" data-name="Path 24" d="M672.3,605.81H784.071V582.047q-55.886-32.057-111.772,0Z" transform="translate(-493.928 -283.064)" fill="#009797"/>
      <circle id="Ellipse_6" data-name="Ellipse 6" cx="25.963" cy="25.963" r="25.963" transform="translate(508.408 254.979)" fill="#009797"/>
      <circle id="Ellipse_7" data-name="Ellipse 7" cx="25.963" cy="25.963" r="25.963" transform="translate(128.206 254.099)" fill="#009797"/>
      <path id="Path_25" data-name="Path 25" d="M776.556,493.36a8.019,8.019,0,0,0-.081,1.26L745.353,516.07l-8.3-3.929-7.566,11.75,14.016,8.383a6.1,6.1,0,0,0,7.278-.762L782.3,502.26a8,8,0,1,0-5.743-8.9Z" transform="translate(-545.908 -264.162)" fill="#ffb8b8"/>
      <path id="Path_26" data-name="Path 26" d="M824.171,519.46a3.43,3.43,0,0,0-1.864-2.163l-15.649-7.17a9.526,9.526,0,1,0-10.442,15.936L809.154,537.5a3.429,3.429,0,0,0,5.146-.7l9.451-14.517a3.43,3.43,0,0,0,.419-2.825Z" transform="translate(-625.325 -269.398)" fill="#6c63ff"/>
      <path id="Path_27" data-name="Path 27" d="M730.447,494.469l.156.011.427-5.9c.136-1.887,1.357-3.336,2.726-3.237h0l9.074.657c1.372.1,3.887,1.819,3.752,3.705l-.11,1.52-2.233,30.866c-.136,1.887-2.877,3.226-4.247,3.125h0l-9.074-.657c-1.372-.1-2.368-1.709-2.232-3.6h0l1.612-22.279-.156-.011Z" transform="translate(-499.403 -263.872)" fill="#3f3d56"/>
      <path id="Path_28" data-name="Path 28" d="M733.908,488.915l-2.34,32.336c-.1,1.409.644,2.611,1.667,2.686l9.117.66c1.023.076,1.934-1.008,2.036-2.417l2.34-32.336c.1-1.409-.644-2.611-1.667-2.686l-1.106-.08a1.408,1.408,0,0,1-.6,1.546.677.677,0,0,1-.338.065l-5.2-.376c-.486-.036-.838-.61-.792-1.277a1.625,1.625,0,0,1,.1-.451l-1.184-.085C734.921,486.422,734.009,487.505,733.908,488.915Z" transform="translate(-501.758 -264.147)" fill="#fff"/>
      <path id="Path_29" data-name="Path 29" d="M463.737,385.195l3.007-8.846-32.691-15.81L429.615,373.6Z" transform="translate(-103.677 -85.762)" fill="#ffb8b8"/>
      <path id="Path_30" data-name="Path 30" d="M569.056,585.289l9.7-28.523-.361-.123a11.726,11.726,0,0,0-14.877,7.328h0l-5.922,17.422Z" transform="translate(-201.188 -280.684)" fill="#2f2e41"/>
      <path id="Path_31" data-name="Path 31" d="M628.477,580.409a39.9,39.9,0,0,0,20.267-4.244l38.441-26.15,44.889,16.621a4.969,4.969,0,0,0,6.183-2.783l2.2-5.292a4.929,4.929,0,0,0-2.545-6.421l-42.883-19.257a25.062,25.062,0,0,0-16.392-1.418L619.1,546.635l-15.736,18.688.174.241C611.266,576.221,620.43,579.826,628.477,580.409Z" transform="translate(-398.164 -274.662)" fill="#2f2e41"/>
      <circle id="Ellipse_8" data-name="Ellipse 8" cx="18.719" cy="18.719" r="18.719" transform="translate(162.975 190.221)" fill="#ffb8b8"/>
      <path id="Path_32" data-name="Path 32" d="M784.942,566.274l30.126-22.42-20.545-14.6c.588-1.892,3.195-12.7-11.063-20.075a54.365,54.365,0,0,1-9.665-5.968,14.459,14.459,0,0,0-23.3,15.177c2.972,9.664,7.709,22.47,13.387,28.594a177.292,177.292,0,0,0,20.83,19.124Z" transform="translate(-584.034 -267.281)" fill="#6c63ff"/>
      <path id="Path_33" data-name="Path 33" d="M470.005,395.481l3.007-8.847-32.691-15.809-4.439,13.056Z" transform="translate(-114.722 -88.208)" fill="#ffb8b8"/>
      <path id="Path_34" data-name="Path 34" d="M575.323,595.574l9.7-28.524-.36-.123a11.726,11.726,0,0,0-14.877,7.328h0l-5.921,17.424Z" transform="translate(-212.233 -283.131)" fill="#2f2e41"/>
      <path id="Path_35" data-name="Path 35" d="M634.746,590.694a39.9,39.9,0,0,0,20.267-4.244l38.44-26.152,44.889,16.621a4.969,4.969,0,0,0,6.183-2.783l2.2-5.291a4.929,4.929,0,0,0-2.545-6.421l-42.888-19.257A25.063,25.063,0,0,0,684.9,541.75l-59.531,15.174-15.736,18.688.174.241C617.534,586.507,626.7,590.112,634.746,590.694Z" transform="translate(-409.209 -277.108)" fill="#2f2e41"/>
      <path id="Path_36" data-name="Path 36" d="M782.137,523.843a8.037,8.037,0,0,0-.61,1.1l-37.308,6.06-5.818-7.1-11.869,7.379,9.077,13.577a6.1,6.1,0,0,0,6.9,2.422L783.52,534.34a8,8,0,1,0-1.38-10.5Z" transform="translate(-547.96 -272.19)" fill="#ffb8b8"/>
      <path id="Path_37" data-name="Path 37" d="M824.589,525.424a3.429,3.429,0,0,0-.762-2.753l-11.072-13.179a9.526,9.526,0,1,0-16.257,9.932l6.795,15.876a3.429,3.429,0,0,0,4.949,1.572L823,527.8a3.43,3.43,0,0,0,1.589-2.373Z" transform="translate(-628.084 -268.533)" fill="#6c63ff"/>
      <path id="Path_38" data-name="Path 38" d="M821.049,480.874a40.86,40.86,0,0,1-8.594-24.437A25.225,25.225,0,0,0,821,460.563c3.271.871,6.867,1.046,9.946-.357a11.779,11.779,0,0,0,6.408-11.75,14.489,14.489,0,0,0-8.031-11.1,18.945,18.945,0,0,0-13.922-.843,16.553,16.553,0,0,0-17.784-2.373c-6.626,3.252-10.289,10.783-10.926,18.139s1.254,14.665,3.125,21.8l.212.806c.583,2.222,2.278,6.487,2.278,6.487s9.844-1.943,13.754-3.188C811.728,480.237,821.049,480.874,821.049,480.874Z" transform="translate(-634.351 -251.319)" fill="#2f2e41"/>
      <path id="Path_39" data-name="Path 39" d="M735.574,497.831l8.021.58a.762.762,0,0,0,.11-1.52l-8.021-.58a.762.762,0,0,0-.11,1.52Z" transform="translate(-501.953 -266.482)" fill="#3f3d56"/>
      <path id="Path_40" data-name="Path 40" d="M735.935,502.818l8.021.58a.762.762,0,0,0,.11-1.52l-8.021-.578a.762.762,0,0,0-.11,1.521Z" transform="translate(-502.589 -267.668)" fill="#3f3d56"/>
      <path id="Path_41" data-name="Path 41" d="M736.3,507.8l8.021.58a.762.762,0,1,0,.11-1.521l-8.021-.58a.762.762,0,1,0-.11,1.52Z" transform="translate(-503.224 -268.854)" fill="#3f3d56"/>
      <path id="Path_42" data-name="Path 42" d="M147.762,704.774H836.727a.762.762,0,1,0,0-1.524H147.762a.762.762,0,1,0,0,1.524Z" transform="translate(-147 -315.707)" fill="#3f3d56"/>
      <path id="Path_43" data-name="Path 43" d="M524.639,347.274h76.975a6.867,6.867,0,0,0,6.859-6.859V274.109a6.867,6.867,0,0,0-6.859-6.859H524.639a6.867,6.867,0,0,0-6.859,6.859v66.305a6.867,6.867,0,0,0,6.859,6.859Zm76.975-78.5a5.341,5.341,0,0,1,5.335,5.335v66.305a5.341,5.341,0,0,1-5.335,5.335H524.639a5.341,5.341,0,0,1-5.335-5.335V274.109a5.341,5.341,0,0,1,5.335-5.335Z" transform="translate(-200.566 -211.996)" fill="#f2f2f2"/>
      <path id="Path_44" data-name="Path 44" d="M539.525,340.2h54.466a6.485,6.485,0,0,0,6.478-6.478v-46.49a6.486,6.486,0,0,0-6.478-6.478H539.525a6.486,6.486,0,0,0-6.478,6.478v46.49A6.486,6.486,0,0,0,539.525,340.2Z" transform="translate(-204.198 -215.207)" fill="#b5d6d6"/>
      <circle id="Ellipse_9" data-name="Ellipse 9" cx="3.811" cy="3.811" r="3.811" transform="translate(358.369 37.725)" fill="#f2f2f2"/>
      <path id="Path_45" data-name="Path 45" d="M419.921,68.908l8.01-13.385L435.9,68.906l1.31-.779-9.271-15.578-9.322,15.576Z" transform="translate(-65.753 -12.5)" fill="#f2f2f2"/>
      <path id="Path_46" data-name="Path 46" d="M569.78,311.68a16.017,16.017,0,0,1,.381-3.43h11.432a3.048,3.048,0,0,1,3.049,3.049v16.328A15.994,15.994,0,0,1,569.78,311.68Z" transform="translate(-216.365 -221.748)" fill="#6c63ff"/>
      <path id="Path_47" data-name="Path 47" d="M562.845,324.283a16.767,16.767,0,1,0-16.371-20.359l-.2.924h12.382a2.286,2.286,0,0,1,2.286,2.286v17.038l.838.059C562.133,324.259,562.486,324.283,562.845,324.283Zm0-32.009a15.243,15.243,0,0,1,0,30.485c-.128,0-.255,0-.381-.01V307.135a3.815,3.815,0,0,0-3.811-3.811H548.2a15.33,15.33,0,0,1,14.65-11.051Z" transform="translate(-193.426 -217.585)" fill="#fff"/>
      <path id="Path_48" data-name="Path 48" d="M572.591,333.162h18.291a3.815,3.815,0,0,0,3.811-3.811v-2.673l-.708-.05a15.2,15.2,0,0,1-13.794-18.453l.2-.925h-7.8a3.815,3.815,0,0,0-3.811,3.811v18.291a3.815,3.815,0,0,0,3.811,3.811Zm20.577-5.079v1.268a2.286,2.286,0,0,1-2.286,2.286H572.591a2.286,2.286,0,0,1-2.286-2.286V311.061a2.286,2.286,0,0,1,2.286-2.286h5.935a16.632,16.632,0,0,0-.219,2.667,16.813,16.813,0,0,0,14.862,16.642Z" transform="translate(-225.654 -221.51)" fill="#fff"/>
      <path id="Path_49" data-name="Path 49" d="M924.819,293.065h83.741a6.478,6.478,0,0,0,6.428-7.281l-10.67-85.359a6.489,6.489,0,0,0-6.428-5.675h-62.4a6.489,6.489,0,0,0-6.428,5.675l-10.67,85.359a6.478,6.478,0,0,0,6.428,7.281Z" transform="translate(-912.411 -194.75)" fill="#b5d6d6"/>
    </g>
  </g>
</svg>
