<svg xmlns="http://www.w3.org/2000/svg" xmlns:xlink="http://www.w3.org/1999/xlink" width="540" height="668" viewBox="0 0 540 668">
  <defs>
    <clipPath id="clip-Custom_Size_2">
      <rect width="540" height="668"/>
    </clipPath>
  </defs>
  <g id="Custom_Size_2" data-name="Custom Size – 2" clip-path="url(#clip-Custom_Size_2)">
    <rect width="540" height="668" fill="#fff"/>
    <circle id="Ellipse_1" data-name="Ellipse 1" cx="10" cy="10" r="10" transform="translate(502 256)" fill="#fff"/>
    <circle id="Ellipse_2" data-name="Ellipse 2" cx="10" cy="10" r="10" transform="translate(502 296)" fill="#fff"/>
    <circle id="Ellipse_3" data-name="Ellipse 3" cx="10" cy="10" r="10" transform="translate(502 336)" fill="#fff"/>
    <circle id="Ellipse_4" data-name="Ellipse 4" cx="10" cy="10" r="10" transform="translate(502 376)" fill="#fff"/>
    <circle id="Ellipse_5" data-name="Ellipse 5" cx="10" cy="10" r="10" transform="translate(502 416)" fill="#fff"/>
    <path id="Path_4" data-name="Path 4" d="M10-1c5.523,0,10,5.477,10,11A10,10,0,0,1,0,10C0,4.477,4.477-1,10-1Z" transform="translate(502 457)" fill="#fff"/>
    <circle id="Ellipse_7" data-name="Ellipse 7" cx="10" cy="10" r="10" transform="translate(502 497)" fill="#fff"/>
    <circle id="Ellipse_8" data-name="Ellipse 8" cx="10" cy="10" r="10" transform="translate(462 277)" fill="#fff"/>
    <circle id="Ellipse_9" data-name="Ellipse 9" cx="10" cy="10" r="10" transform="translate(462 317)" fill="#fff"/>
    <circle id="Ellipse_10" data-name="Ellipse 10" cx="10" cy="10" r="10" transform="translate(462 357)" fill="#fff"/>
    <circle id="Ellipse_11" data-name="Ellipse 11" cx="10" cy="10" r="10" transform="translate(462 397)" fill="#fff"/>
    <circle id="Ellipse_12" data-name="Ellipse 12" cx="10" cy="10" r="10" transform="translate(462 437)" fill="#fff"/>
    <path id="Path_5" data-name="Path 5" d="M10-1c5.523,0,10,5.477,10,11A10,10,0,0,1,0,10C0,4.477,4.477-1,10-1Z" transform="translate(462 478)" fill="#fff"/>
    <circle id="Ellipse_13" data-name="Ellipse 13" cx="10" cy="10" r="10" transform="translate(462 518)" fill="#fff"/>
    <circle id="Ellipse_14" data-name="Ellipse 14" cx="10" cy="10" r="10" transform="translate(422 298)" fill="#fff"/>
    <circle id="Ellipse_15" data-name="Ellipse 15" cx="10" cy="10" r="10" transform="translate(422 338)" fill="#fff"/>
    <circle id="Ellipse_16" data-name="Ellipse 16" cx="10" cy="10" r="10" transform="translate(422 378)" fill="#fff"/>
    <circle id="Ellipse_17" data-name="Ellipse 17" cx="10" cy="10" r="10" transform="translate(422 418)" fill="#fff"/>
    <circle id="Ellipse_18" data-name="Ellipse 18" cx="10" cy="10" r="10" transform="translate(422 458)" fill="#fff"/>
    <path id="Path_6" data-name="Path 6" d="M10-1c5.523,0,10,5.477,10,11A10,10,0,0,1,0,10C0,4.477,4.477-1,10-1Z" transform="translate(422 499)" fill="#fff"/>
    <circle id="Ellipse_19" data-name="Ellipse 19" cx="10" cy="10" r="10" transform="translate(422 539)" fill="#fff"/>
    <circle id="Ellipse_20" data-name="Ellipse 20" cx="10" cy="10" r="10" transform="translate(382 319)" fill="#fff"/>
    <circle id="Ellipse_21" data-name="Ellipse 21" cx="10" cy="10" r="10" transform="translate(382 359)" fill="#fff"/>
    <circle id="Ellipse_22" data-name="Ellipse 22" cx="10" cy="10" r="10" transform="translate(382 399)" fill="#fff"/>
    <circle id="Ellipse_23" data-name="Ellipse 23" cx="10" cy="10" r="10" transform="translate(382 439)" fill="#fff"/>
    <circle id="Ellipse_24" data-name="Ellipse 24" cx="10" cy="10" r="10" transform="translate(382 479)" fill="#fff"/>
    <path id="Path_7" data-name="Path 7" d="M10-1c5.523,0,10,5.477,10,11A10,10,0,0,1,0,10C0,4.477,4.477-1,10-1Z" transform="translate(382 520)" fill="#fff"/>
    <circle id="Ellipse_25" data-name="Ellipse 25" cx="10" cy="10" r="10" transform="translate(382 560)" fill="#fff"/>
    <circle id="Ellipse_26" data-name="Ellipse 26" cx="10" cy="10" r="10" transform="translate(342 341)" fill="#fff"/>
    <circle id="Ellipse_27" data-name="Ellipse 27" cx="10" cy="10" r="10" transform="translate(342 381)" fill="#fff"/>
    <circle id="Ellipse_28" data-name="Ellipse 28" cx="10" cy="10" r="10" transform="translate(342 421)" fill="#fff"/>
    <circle id="Ellipse_29" data-name="Ellipse 29" cx="10" cy="10" r="10" transform="translate(342 461)" fill="#fff"/>
    <circle id="Ellipse_30" data-name="Ellipse 30" cx="10" cy="10" r="10" transform="translate(342 501)" fill="#fff"/>
    <path id="Path_8" data-name="Path 8" d="M10-1c5.523,0,10,5.477,10,11A10,10,0,0,1,0,10C0,4.477,4.477-1,10-1Z" transform="translate(342 542)" fill="#fff"/>
    <circle id="Ellipse_31" data-name="Ellipse 31" cx="10" cy="10" r="10" transform="translate(342 582)" fill="#fff"/>
    <circle id="Ellipse_32" data-name="Ellipse 32" cx="10" cy="10" r="10" transform="translate(302 362)" fill="#fff"/>
    <circle id="Ellipse_33" data-name="Ellipse 33" cx="10" cy="10" r="10" transform="translate(302 402)" fill="#fff"/>
    <circle id="Ellipse_34" data-name="Ellipse 34" cx="10" cy="10" r="10" transform="translate(302 442)" fill="#fff"/>
    <circle id="Ellipse_35" data-name="Ellipse 35" cx="10" cy="10" r="10" transform="translate(302 482)" fill="#fff"/>
    <circle id="Ellipse_36" data-name="Ellipse 36" cx="10" cy="10" r="10" transform="translate(302 522)" fill="#fff"/>
    <path id="Path_9" data-name="Path 9" d="M10-1c5.523,0,10,5.477,10,11A10,10,0,0,1,0,10C0,4.477,4.477-1,10-1Z" transform="translate(302 563)" fill="#fff"/>
    <circle id="Ellipse_37" data-name="Ellipse 37" cx="10" cy="10" r="10" transform="translate(302 603)" fill="#fff"/>
    <circle id="Ellipse_38" data-name="Ellipse 38" cx="10" cy="10" r="10" transform="translate(262 383)" fill="#fff"/>
    <circle id="Ellipse_39" data-name="Ellipse 39" cx="10" cy="10" r="10" transform="translate(262 423)" fill="#fff"/>
    <circle id="Ellipse_40" data-name="Ellipse 40" cx="10" cy="10" r="10" transform="translate(262 463)" fill="#fff"/>
    <circle id="Ellipse_41" data-name="Ellipse 41" cx="10" cy="10" r="10" transform="translate(262 503)" fill="#fff"/>
    <circle id="Ellipse_42" data-name="Ellipse 42" cx="10" cy="10" r="10" transform="translate(262 543)" fill="#fff"/>
    <path id="Path_10" data-name="Path 10" d="M10-1c5.523,0,10,5.477,10,11A10,10,0,0,1,0,10C0,4.477,4.477-1,10-1Z" transform="translate(262 584)" fill="#fff"/>
    <circle id="Ellipse_43" data-name="Ellipse 43" cx="10" cy="10" r="10" transform="translate(262 624)" fill="#fff"/>
    <circle id="Ellipse_44" data-name="Ellipse 44" cx="10" cy="10" r="10" transform="translate(222 403)" fill="#fff"/>
    <circle id="Ellipse_45" data-name="Ellipse 45" cx="10" cy="10" r="10" transform="translate(222 443)" fill="#fff"/>
    <circle id="Ellipse_46" data-name="Ellipse 46" cx="10" cy="10" r="10" transform="translate(222 483)" fill="#fff"/>
    <circle id="Ellipse_47" data-name="Ellipse 47" cx="10" cy="10" r="10" transform="translate(222 523)" fill="#fff"/>
    <circle id="Ellipse_48" data-name="Ellipse 48" cx="10" cy="10" r="10" transform="translate(222 563)" fill="#fff"/>
    <path id="Path_11" data-name="Path 11" d="M10-1c5.523,0,10,5.477,10,11A10,10,0,0,1,0,10C0,4.477,4.477-1,10-1Z" transform="translate(222 604)" fill="#fff"/>
    <circle id="Ellipse_50" data-name="Ellipse 50" cx="10" cy="10" r="10" transform="translate(182 424)" fill="#fff"/>
    <circle id="Ellipse_51" data-name="Ellipse 51" cx="10" cy="10" r="10" transform="translate(182 464)" fill="#fff"/>
    <circle id="Ellipse_52" data-name="Ellipse 52" cx="10" cy="10" r="10" transform="translate(182 504)" fill="#fff"/>
    <circle id="Ellipse_53" data-name="Ellipse 53" cx="10" cy="10" r="10" transform="translate(182 544)" fill="#fff"/>
    <circle id="Ellipse_54" data-name="Ellipse 54" cx="10" cy="10" r="10" transform="translate(182 584)" fill="#fff"/>
    <circle id="Ellipse_55" data-name="Ellipse 55" cx="10" cy="10" r="10" transform="translate(142 445)" fill="#fff"/>
    <circle id="Ellipse_56" data-name="Ellipse 56" cx="10" cy="10" r="10" transform="translate(142 485)" fill="#fff"/>
    <circle id="Ellipse_57" data-name="Ellipse 57" cx="10" cy="10" r="10" transform="translate(142 525)" fill="#fff"/>
    <circle id="Ellipse_58" data-name="Ellipse 58" cx="10" cy="10" r="10" transform="translate(142 565)" fill="#fff"/>
    <circle id="Ellipse_60" data-name="Ellipse 60" cx="10" cy="10" r="10" transform="translate(102 466)" fill="#fff"/>
    <circle id="Ellipse_61" data-name="Ellipse 61" cx="10" cy="10" r="10" transform="translate(102 506)" fill="#fff"/>
    <circle id="Ellipse_62" data-name="Ellipse 62" cx="10" cy="10" r="10" transform="translate(102 546)" fill="#fff"/>
    <circle id="Ellipse_63" data-name="Ellipse 63" cx="10" cy="10" r="10" transform="translate(62 487)" fill="#fff"/>
    <circle id="Ellipse_64" data-name="Ellipse 64" cx="10" cy="10" r="10" transform="translate(62 527)" fill="#fff"/>
    <circle id="Ellipse_67" data-name="Ellipse 67" cx="10" cy="10" r="10" transform="translate(22 508)" fill="#fff"/>
    <g id="Group_1" data-name="Group 1" transform="translate(-332 -66)">
      <path id="Path_1" data-name="Path 1" d="M39.186,3.788s.428-.963,1.259-.962S41.8,3.911,41.8,3.911L79.374,71.97a.915.915,0,0,1-.805,1.354H1.6A.915.915,0,0,1,.8,71.97Z" transform="matrix(0.978, 0.208, -0.208, 0.978, 603.544, 83.977)" fill="#1cb5ff"/>
      <path id="Path_2" data-name="Path 2" d="M39.186,3.788s.428-.963,1.259-.962S41.8,3.911,41.8,3.911L79.374,71.97a.915.915,0,0,1-.805,1.354H1.6A.915.915,0,0,1,.8,71.97Z" transform="matrix(0.978, -0.208, 0.208, 0.978, 519.711, 100.645)" fill="#1cb5ff"/>
      <path id="Path_3" data-name="Path 3" d="M2470.369,719.713,2291.112,819.786s-13.088,9.143-18.826,19.6-4.126,26.6-4.126,26.6v255.682s-1.613,17.034,4.126,27.22,18.826,18.57,18.826,18.57l222.838,106.768a52.978,52.978,0,0,0,23.5,6,43.587,43.587,0,0,0,22-6l217.329-106.768s19.8-9.128,24.76-18.57,5.158-27.22,5.158-27.22V865.991s1.279-16.143-5.158-26.6-24.76-19.6-24.76-19.6L2604.487,719.713l12.38-64.652s2.063-5.846-2.063-7.909-6.878,3.1-6.878,3.1l-36.452,30.262-28.2-56.205s-5.7-9.349-9.285-9.135-7.91,9.135-7.91,9.135l-24.76,56.205-37.142-30.262s-4.469-4.3-6.533-3.1-1.72,7.909-1.72,7.909Z" transform="translate(-1935.95 -547.732)" fill="#007ad9"/>
      <circle id="Ellipse_1-2" data-name="Ellipse 1" cx="10" cy="10" r="10" transform="translate(831 324)" fill="#fff"/>
      <circle id="Ellipse_2-2" data-name="Ellipse 2" cx="10" cy="10" r="10" transform="translate(831 364)" fill="#fff"/>
      <circle id="Ellipse_3-2" data-name="Ellipse 3" cx="10" cy="10" r="10" transform="translate(831 404)" fill="#fff"/>
      <circle id="Ellipse_4-2" data-name="Ellipse 4" cx="10" cy="10" r="10" transform="translate(831 444)" fill="#fff"/>
      <circle id="Ellipse_5-2" data-name="Ellipse 5" cx="10" cy="10" r="10" transform="translate(831 484)" fill="#fff"/>
      <path id="Path_4-2" data-name="Path 4" d="M10-1c5.523,0,10,5.477,10,11A10,10,0,0,1,0,10C0,4.477,4.477-1,10-1Z" transform="translate(831 525)" fill="#fff"/>
      <circle id="Ellipse_6" data-name="Ellipse 6" cx="10" cy="10" r="10" transform="translate(831 565)" fill="#fff"/>
      <circle id="Ellipse_7-2" data-name="Ellipse 7" cx="10" cy="10" r="10" transform="translate(791 345)" fill="#fff"/>
      <circle id="Ellipse_8-2" data-name="Ellipse 8" cx="10" cy="10" r="10" transform="translate(791 385)" fill="#fff"/>
      <circle id="Ellipse_9-2" data-name="Ellipse 9" cx="10" cy="10" r="10" transform="translate(791 425)" fill="#fff"/>
      <circle id="Ellipse_10-2" data-name="Ellipse 10" cx="10" cy="10" r="10" transform="translate(791 465)" fill="#fff"/>
      <circle id="Ellipse_11-2" data-name="Ellipse 11" cx="10" cy="10" r="10" transform="translate(791 505)" fill="#fff"/>
      <path id="Path_5-2" data-name="Path 5" d="M10-1c5.523,0,10,5.477,10,11A10,10,0,0,1,0,10C0,4.477,4.477-1,10-1Z" transform="translate(791 546)" fill="#fff"/>
      <circle id="Ellipse_12-2" data-name="Ellipse 12" cx="10" cy="10" r="10" transform="translate(791 586)" fill="#fff"/>
      <circle id="Ellipse_13-2" data-name="Ellipse 13" cx="10" cy="10" r="10" transform="translate(751 366)" fill="#fff"/>
      <circle id="Ellipse_14-2" data-name="Ellipse 14" cx="10" cy="10" r="10" transform="translate(751 406)" fill="#fff"/>
      <circle id="Ellipse_15-2" data-name="Ellipse 15" cx="10" cy="10" r="10" transform="translate(751 446)" fill="#fff"/>
      <circle id="Ellipse_16-2" data-name="Ellipse 16" cx="10" cy="10" r="10" transform="translate(751 486)" fill="#fff"/>
      <circle id="Ellipse_17-2" data-name="Ellipse 17" cx="10" cy="10" r="10" transform="translate(751 526)" fill="#fff"/>
      <path id="Path_6-2" data-name="Path 6" d="M10-1c5.523,0,10,5.477,10,11A10,10,0,0,1,0,10C0,4.477,4.477-1,10-1Z" transform="translate(751 567)" fill="#fff"/>
      <circle id="Ellipse_18-2" data-name="Ellipse 18" cx="10" cy="10" r="10" transform="translate(751 607)" fill="#fff"/>
      <circle id="Ellipse_19-2" data-name="Ellipse 19" cx="10" cy="10" r="10" transform="translate(711 387)" fill="#fff"/>
      <circle id="Ellipse_20-2" data-name="Ellipse 20" cx="10" cy="10" r="10" transform="translate(711 427)" fill="#fff"/>
      <circle id="Ellipse_21-2" data-name="Ellipse 21" cx="10" cy="10" r="10" transform="translate(711 467)" fill="#fff"/>
      <circle id="Ellipse_22-2" data-name="Ellipse 22" cx="10" cy="10" r="10" transform="translate(711 507)" fill="#fff"/>
      <circle id="Ellipse_23-2" data-name="Ellipse 23" cx="10" cy="10" r="10" transform="translate(711 547)" fill="#fff"/>
      <path id="Path_7-2" data-name="Path 7" d="M10-1c5.523,0,10,5.477,10,11A10,10,0,0,1,0,10C0,4.477,4.477-1,10-1Z" transform="translate(711 588)" fill="#fff"/>
      <circle id="Ellipse_24-2" data-name="Ellipse 24" cx="10" cy="10" r="10" transform="translate(711 628)" fill="#fff"/>
      <circle id="Ellipse_25-2" data-name="Ellipse 25" cx="10" cy="10" r="10" transform="translate(671 409)" fill="#fff"/>
      <circle id="Ellipse_26-2" data-name="Ellipse 26" cx="10" cy="10" r="10" transform="translate(671 449)" fill="#fff"/>
      <circle id="Ellipse_27-2" data-name="Ellipse 27" cx="10" cy="10" r="10" transform="translate(671 489)" fill="#fff"/>
      <circle id="Ellipse_28-2" data-name="Ellipse 28" cx="10" cy="10" r="10" transform="translate(671 529)" fill="#fff"/>
      <circle id="Ellipse_29-2" data-name="Ellipse 29" cx="10" cy="10" r="10" transform="translate(671 569)" fill="#fff"/>
      <path id="Path_8-2" data-name="Path 8" d="M10-1c5.523,0,10,5.477,10,11A10,10,0,0,1,0,10C0,4.477,4.477-1,10-1Z" transform="translate(671 610)" fill="#fff"/>
      <circle id="Ellipse_30-2" data-name="Ellipse 30" cx="10" cy="10" r="10" transform="translate(671 650)" fill="#fff"/>
      <circle id="Ellipse_31-2" data-name="Ellipse 31" cx="10" cy="10" r="10" transform="translate(631 430)" fill="#fff"/>
      <circle id="Ellipse_32-2" data-name="Ellipse 32" cx="10" cy="10" r="10" transform="translate(631 470)" fill="#fff"/>
      <circle id="Ellipse_33-2" data-name="Ellipse 33" cx="10" cy="10" r="10" transform="translate(631 510)" fill="#fff"/>
      <circle id="Ellipse_34-2" data-name="Ellipse 34" cx="10" cy="10" r="10" transform="translate(631 550)" fill="#fff"/>
      <circle id="Ellipse_35-2" data-name="Ellipse 35" cx="10" cy="10" r="10" transform="translate(631 590)" fill="#fff"/>
      <path id="Path_9-2" data-name="Path 9" d="M10-1c5.523,0,10,5.477,10,11A10,10,0,0,1,0,10C0,4.477,4.477-1,10-1Z" transform="translate(631 631)" fill="#fff"/>
      <circle id="Ellipse_36-2" data-name="Ellipse 36" cx="10" cy="10" r="10" transform="translate(631 671)" fill="#fff"/>
      <circle id="Ellipse_37-2" data-name="Ellipse 37" cx="10" cy="10" r="10" transform="translate(591 451)" fill="#fff"/>
      <circle id="Ellipse_38-2" data-name="Ellipse 38" cx="10" cy="10" r="10" transform="translate(591 491)" fill="#fff"/>
      <circle id="Ellipse_39-2" data-name="Ellipse 39" cx="10" cy="10" r="10" transform="translate(591 531)" fill="#fff"/>
      <circle id="Ellipse_40-2" data-name="Ellipse 40" cx="10" cy="10" r="10" transform="translate(591 571)" fill="#fff"/>
      <circle id="Ellipse_41-2" data-name="Ellipse 41" cx="10" cy="10" r="10" transform="translate(591 611)" fill="#fff"/>
      <path id="Path_10-2" data-name="Path 10" d="M10-1c5.523,0,10,5.477,10,11A10,10,0,0,1,0,10C0,4.477,4.477-1,10-1Z" transform="translate(591 652)" fill="#fff"/>
      <circle id="Ellipse_42-2" data-name="Ellipse 42" cx="10" cy="10" r="10" transform="translate(591 692)" fill="#fff"/>
      <circle id="Ellipse_43-2" data-name="Ellipse 43" cx="10" cy="10" r="10" transform="translate(551 471)" fill="#fff"/>
      <circle id="Ellipse_44-2" data-name="Ellipse 44" cx="10" cy="10" r="10" transform="translate(551 511)" fill="#fff"/>
      <circle id="Ellipse_45-2" data-name="Ellipse 45" cx="10" cy="10" r="10" transform="translate(551 551)" fill="#fff"/>
      <circle id="Ellipse_46-2" data-name="Ellipse 46" cx="10" cy="10" r="10" transform="translate(551 591)" fill="#fff"/>
      <circle id="Ellipse_47-2" data-name="Ellipse 47" cx="10" cy="10" r="10" transform="translate(551 631)" fill="#fff"/>
      <path id="Path_11-2" data-name="Path 11" d="M10-1c5.523,0,10,5.477,10,11A10,10,0,0,1,0,10C0,4.477,4.477-1,10-1Z" transform="translate(551 672)" fill="#fff"/>
      <circle id="Ellipse_48-2" data-name="Ellipse 48" cx="10" cy="10" r="10" transform="translate(511 492)" fill="#fff"/>
      <circle id="Ellipse_49" data-name="Ellipse 49" cx="10" cy="10" r="10" transform="translate(511 532)" fill="#fff"/>
      <circle id="Ellipse_50-2" data-name="Ellipse 50" cx="10" cy="10" r="10" transform="translate(511 572)" fill="#fff"/>
      <circle id="Ellipse_51-2" data-name="Ellipse 51" cx="10" cy="10" r="10" transform="translate(511 612)" fill="#fff"/>
      <circle id="Ellipse_52-2" data-name="Ellipse 52" cx="10" cy="10" r="10" transform="translate(511 652)" fill="#fff"/>
      <circle id="Ellipse_53-2" data-name="Ellipse 53" cx="10" cy="10" r="10" transform="translate(471 513)" fill="#fff"/>
      <circle id="Ellipse_54-2" data-name="Ellipse 54" cx="10" cy="10" r="10" transform="translate(471 553)" fill="#fff"/>
      <circle id="Ellipse_55-2" data-name="Ellipse 55" cx="10" cy="10" r="10" transform="translate(471 593)" fill="#fff"/>
      <circle id="Ellipse_56-2" data-name="Ellipse 56" cx="10" cy="10" r="10" transform="translate(471 633)" fill="#fff"/>
      <circle id="Ellipse_57-2" data-name="Ellipse 57" cx="10" cy="10" r="10" transform="translate(431 534)" fill="#fff"/>
      <circle id="Ellipse_58-2" data-name="Ellipse 58" cx="10" cy="10" r="10" transform="translate(431 574)" fill="#fff"/>
      <circle id="Ellipse_59" data-name="Ellipse 59" cx="10" cy="10" r="10" transform="translate(431 614)" fill="#fff"/>
      <circle id="Ellipse_60-2" data-name="Ellipse 60" cx="10" cy="10" r="10" transform="translate(391 555)" fill="#fff"/>
      <circle id="Ellipse_61-2" data-name="Ellipse 61" cx="10" cy="10" r="10" transform="translate(391 595)" fill="#fff"/>
      <circle id="Ellipse_62-2" data-name="Ellipse 62" cx="10" cy="10" r="10" transform="translate(351 576)" fill="#fff"/>
    </g>
  </g>
</svg>
