<svg xmlns="http://www.w3.org/2000/svg" width="28.1" height="15.258" viewBox="0 0 28.1 15.258">
  <path id="path" d="M791.976,114.486H805.2v5.086h-2.543v5.086h-5.086v-5.086h-5.594a7.214,7.214,0,0,1-2.8,3.687,7.708,7.708,0,0,1-4.45,1.4,6.925,6.925,0,0,1-5.34-2.289,7.85,7.85,0,0,1-2.289-5.34,6.926,6.926,0,0,1,2.289-5.34,7.85,7.85,0,0,1,5.34-2.289,7.708,7.708,0,0,1,4.45,1.4A7.213,7.213,0,0,1,791.976,114.486Zm-8.9,4.323a2.459,2.459,0,1,0-.763-1.78A2.511,2.511,0,0,0,783.076,118.809Z" transform="translate(-777.1 -109.4)"/>
</svg>
