<svg xmlns="http://www.w3.org/2000/svg" width="41.903" height="32" viewBox="0 0 41.903 32">
  <g id="email" transform="translate(0 -60.5)" opacity="0.8">
    <g id="Group_2" data-name="Group 2" transform="translate(0 60.5)">
      <path id="Path_2" data-name="Path 2" d="M40.266,79.405A1.637,1.637,0,0,0,41.9,77.769V67.047A6.555,6.555,0,0,0,35.356,60.5H6.547A6.555,6.555,0,0,0,0,67.047V85.953A6.555,6.555,0,0,0,6.547,92.5H35.356A6.555,6.555,0,0,0,41.9,85.953a1.637,1.637,0,1,0-3.274,0,3.277,3.277,0,0,1-3.274,3.274H6.547a3.277,3.277,0,0,1-3.274-3.274V67.394l14.22,8.843a6.507,6.507,0,0,0,6.915,0l14.22-8.843V77.769A1.637,1.637,0,0,0,40.266,79.405ZM22.68,73.457a3.253,3.253,0,0,1-3.457,0L4.64,64.388a3.256,3.256,0,0,1,1.908-.615H35.356a3.256,3.256,0,0,1,1.908.615Z" transform="translate(0 -60.5)" fill="#474747"/>
    </g>
  </g>
</svg>
