<svg xmlns="http://www.w3.org/2000/svg" xmlns:xlink="http://www.w3.org/1999/xlink" width="760.69" height="392.165" viewBox="0 0 760.69 392.165">
  <defs>
    <clipPath id="clip-path">
      <rect id="Rectangle_25" data-name="Rectangle 25" width="760.69" height="392.165" fill="none"/>
    </clipPath>
  </defs>
  <g id="Repeat_Grid_2" data-name="Repeat Grid 2" clip-path="url(#clip-path)">
    <g id="Group_21" data-name="Group 21" transform="translate(0.027 0)">
      <path id="Path_50" data-name="Path 50" d="M911.35,680.672H152.675a1.01,1.01,0,0,1,0-2.02h758.67a1.01,1.01,0,1,1,0,2.02Z" transform="translate(-151.694 -288.594)" fill="#3f3d56"/>
      <circle id="Ellipse_10" data-name="Ellipse 10" cx="5.486" cy="5.486" r="5.486" transform="translate(232.323 37.762)" fill="#b5d6d6"/>
      <circle id="Ellipse_11" data-name="Ellipse 11" cx="5.486" cy="5.486" r="5.486" transform="translate(210.458 37.762)" fill="#b5d6d6"/>
      <circle id="Ellipse_12" data-name="Ellipse 12" cx="5.486" cy="5.486" r="5.486" transform="translate(188.594 37.762)" fill="#b5d6d6"/>
      <circle id="Ellipse_13" data-name="Ellipse 13" cx="5.486" cy="5.486" r="5.486" transform="translate(166.729 37.762)" fill="#b5d6d6"/>
      <circle id="Ellipse_14" data-name="Ellipse 14" cx="5.486" cy="5.486" r="5.486" transform="translate(232.323 60.668)" fill="#b5d6d6"/>
      <circle id="Ellipse_15" data-name="Ellipse 15" cx="5.486" cy="5.486" r="5.486" transform="translate(210.458 60.668)" fill="#b5d6d6"/>
      <circle id="Ellipse_16" data-name="Ellipse 16" cx="5.486" cy="5.486" r="5.486" transform="translate(188.594 60.668)" fill="#b5d6d6"/>
      <circle id="Ellipse_17" data-name="Ellipse 17" cx="5.486" cy="5.486" r="5.486" transform="translate(166.729 60.668)" fill="#b5d6d6"/>
      <circle id="Ellipse_18" data-name="Ellipse 18" cx="5.486" cy="5.486" r="5.486" transform="translate(232.323 83.573)" fill="#b5d6d6"/>
      <circle id="Ellipse_19" data-name="Ellipse 19" cx="5.486" cy="5.486" r="5.486" transform="translate(210.458 83.573)" fill="#b5d6d6"/>
      <circle id="Ellipse_20" data-name="Ellipse 20" cx="5.486" cy="5.486" r="5.486" transform="translate(188.594 83.573)" fill="#b5d6d6"/>
      <circle id="Ellipse_21" data-name="Ellipse 21" cx="5.486" cy="5.486" r="5.486" transform="translate(166.729 83.573)" fill="#b5d6d6"/>
      <circle id="Ellipse_22" data-name="Ellipse 22" cx="5.486" cy="5.486" r="5.486" transform="translate(232.323 106.478)" fill="#b5d6d6"/>
      <circle id="Ellipse_23" data-name="Ellipse 23" cx="5.486" cy="5.486" r="5.486" transform="translate(210.458 106.478)" fill="#b5d6d6"/>
      <circle id="Ellipse_24" data-name="Ellipse 24" cx="5.486" cy="5.486" r="5.486" transform="translate(188.594 106.478)" fill="#b5d6d6"/>
      <circle id="Ellipse_25" data-name="Ellipse 25" cx="5.486" cy="5.486" r="5.486" transform="translate(166.729 106.478)" fill="#b5d6d6"/>
      <circle id="Ellipse_26" data-name="Ellipse 26" cx="5.486" cy="5.486" r="5.486" transform="translate(232.323 129.384)" fill="#b5d6d6"/>
      <circle id="Ellipse_27" data-name="Ellipse 27" cx="5.486" cy="5.486" r="5.486" transform="translate(210.458 129.384)" fill="#b5d6d6"/>
      <circle id="Ellipse_28" data-name="Ellipse 28" cx="5.486" cy="5.486" r="5.486" transform="translate(188.594 129.384)" fill="#b5d6d6"/>
      <circle id="Ellipse_29" data-name="Ellipse 29" cx="5.486" cy="5.486" r="5.486" transform="translate(166.729 129.384)" fill="#b5d6d6"/>
      <circle id="Ellipse_30" data-name="Ellipse 30" cx="5.486" cy="5.486" r="5.486" transform="translate(232.323 152.289)" fill="#b5d6d6"/>
      <circle id="Ellipse_31" data-name="Ellipse 31" cx="5.486" cy="5.486" r="5.486" transform="translate(210.458 152.289)" fill="#b5d6d6"/>
      <circle id="Ellipse_32" data-name="Ellipse 32" cx="5.486" cy="5.486" r="5.486" transform="translate(188.594 152.289)" fill="#b5d6d6"/>
      <circle id="Ellipse_33" data-name="Ellipse 33" cx="5.486" cy="5.486" r="5.486" transform="translate(166.729 152.289)" fill="#b5d6d6"/>
      <path id="Path_51" data-name="Path 51" d="M375.19,579.368v1.7a10.614,10.614,0,0,0,10.6,10.6h76.351a10.6,10.6,0,0,0,10.6-10.6v-1.7a10.528,10.528,0,0,0-2.46-6.787,10.907,10.907,0,0,0-1.79-1.7s-41.976-.95-41.976-2.121H385.794a10.619,10.619,0,0,0-10.6,10.6Z" transform="translate(-185.588 -271.929)" fill="#ccc"/>
      <rect id="Rectangle_19" data-name="Rectangle 19" width="11.028" height="71.261" transform="translate(233.482 319.32)" fill="#ccc"/>
      <path id="Path_52" data-name="Path 52" d="M463.568,676.909c0,1.188-16.712.461-37.327.461s-37.327.731-37.327-.461,16.712-10.641,37.327-10.641S463.568,675.717,463.568,676.909Z" transform="translate(-187.669 -286.716)" fill="#ccc"/>
      <path id="Path_53" data-name="Path 53" d="M451.1,562.9a9.114,9.114,0,0,0-3.23-13.6L424.5,469.656l-17.8,8.718,28.573,75.549A9.162,9.162,0,0,0,451.1,562.9Z" transform="translate(-190.367 -256.899)" fill="#a0616a"/>
      <path id="Path_54" data-name="Path 54" d="M428.946,479.473l-19.922,5.393A4.086,4.086,0,0,1,403.9,481.4l-2.408-20.434a11.349,11.349,0,1,1,21.926-5.866l8.207,18.8a4.086,4.086,0,0,1-2.677,5.579Z" transform="translate(-189.518 -253.414)" fill="#6c63ff"/>
      <path id="Path_55" data-name="Path 55" d="M313.515,445.277h10.4l4.948-26.977H313.509Z" transform="translate(-47.572 -63.437)" fill="#a0616a"/>
      <path id="Path_56" data-name="Path 56" d="M462.051,664.962h20.487a13.053,13.053,0,0,1,13.053,13.054v.423H462.056Z" transform="translate(-198.761 -286.518)" fill="#2f2e41"/>
      <path id="Path_57" data-name="Path 57" d="M466.846,634.357q-.182,0-.365-.018l-14.394-1.048a3.818,3.818,0,0,1-3.231-5.115L468.12,584.9a2.969,2.969,0,0,0-.17-2.375,2.927,2.927,0,0,0-1.876-1.493c-9.058-2.368-32.3-8.673-52.416-16.049-8.619-3.161-14.048-7.727-16.135-13.573-2.751-7.709,1.319-14.739,1.493-15.034l.137-.231,18.931,1.72,20.522,1.746,44.973,24.117a17.04,17.04,0,0,1,7.482,21.874l-20.734,46.5a3.818,3.818,0,0,1-3.483,2.263Z" transform="translate(-188.831 -266.982)" fill="#2f2e41"/>
      <circle id="Ellipse_34" data-name="Ellipse 34" cx="20.836" cy="20.836" r="20.836" transform="translate(211.711 143.587)" fill="#a0616a"/>
      <path id="Path_58" data-name="Path 58" d="M306.515,444.277h10.4l4.948-26.977H306.509Z" transform="translate(-46.511 -63.286)" fill="#a0616a"/>
      <path id="Path_59" data-name="Path 59" d="M455.051,663.962h20.487a13.053,13.053,0,0,1,13.053,13.054v.423H455.056Z" transform="translate(-197.699 -286.366)" fill="#2f2e41"/>
      <path id="Path_60" data-name="Path 60" d="M459.846,637.357q-.182,0-.365-.018l-14.394-1.048a3.818,3.818,0,0,1-3.231-5.115L461.12,587.9a2.969,2.969,0,0,0-.17-2.375,2.928,2.928,0,0,0-1.876-1.493c-9.058-2.368-32.3-8.673-52.416-16.049-8.619-3.161-14.048-7.728-16.135-13.573-2.751-7.709,1.319-14.739,1.493-15.034l.137-.231,18.931,1.72,20.522,1.746,44.973,24.117a17.04,17.04,0,0,1,7.482,21.874l-20.734,46.5a3.817,3.817,0,0,1-3.483,2.262Z" transform="translate(-187.769 -267.437)" fill="#2f2e41"/>
      <path id="Path_61" data-name="Path 61" d="M427.245,449.8l-22.057-7.635s-13.847,10.638-7.195,37.029a65.332,65.332,0,0,1-2.884,40.992,42.235,42.235,0,0,1-2.222,4.692s24.6,29.692,47.507,7.635l-8.908-42.841S445.484,461.256,427.245,449.8Z" transform="translate(-188.272 -252.73)" fill="#009797"/>
      <path id="Path_62" data-name="Path 62" d="M422.9,428.2c-2.969-4.439-5.306-10.593-2.041-14.817,3.224-4.169,9.579-3.555,14.516-5.4,6.872-2.57,10.859-10.646,9.619-17.88s-7.05-13.229-13.967-15.683-14.717-1.655-21.491,1.17c-8.338,3.478-15.492,10.206-18.494,18.728s-1.4,18.755,4.826,25.306c6.671,7.023,17.142,8.895,26.827,8.781" transform="translate(-187.77 -242.234)" fill="#2f2e41"/>
      <path id="Path_63" data-name="Path 63" d="M388.787,391.414c-3.733,3.042-9.438,1.691-13.45-.979s-7.266-6.471-11.606-8.568c-7.651-3.69-16.9-1.237-24.348,2.85s-14.048,9.735-21.914,12.942-17.9,3.366-23.86-2.691A21.83,21.83,0,0,0,325.6,420.733c8.618-5.25,13.379-16.258,23.046-19.155,5.35-1.6,11.093-.312,16.5,1.087s11.044,2.91,16.5,1.72,10.559-6.094,9.865-11.635Z" transform="translate(-173.035 -243.31)" fill="#2f2e41"/>
      <path id="Path_64" data-name="Path 64" d="M485.673,616.594a142.107,142.107,0,0,1,0-43.244,3.648,3.648,0,0,1,3.594-3.059h33.826a3.6,3.6,0,0,1,2.846,1.379,3.664,3.664,0,0,1,.685,3.139,86.807,86.807,0,0,0,0,40.318,3.663,3.663,0,0,1-.685,3.139,3.6,3.6,0,0,1-2.846,1.379H489.268a3.648,3.648,0,0,1-3.595-3.059Z" transform="translate(-202.093 -272.16)" fill="#009797"/>
      <path id="Path_65" data-name="Path 65" d="M514.18,593.878H496.43a2.545,2.545,0,0,1-2.545-2.545v-.994a2.545,2.545,0,0,1,2.545-2.545h17.751a2.545,2.545,0,0,1,2.545,2.545v.994a2.545,2.545,0,0,1-2.545,2.545Z" transform="translate(-203.589 -274.815)" fill="#fff"/>
      <path id="Path_66" data-name="Path 66" d="M514.18,606.223H496.43a2.545,2.545,0,0,1-2.545-2.545v-.994a2.545,2.545,0,0,1,2.545-2.545h17.751a2.545,2.545,0,0,1,2.545,2.545v.994a2.545,2.545,0,0,1-2.545,2.545Z" transform="translate(-203.589 -276.687)" fill="#fff"/>
      <path id="Path_67" data-name="Path 67" d="M484.993,560.116a9.114,9.114,0,0,0-6.524-12.358l-42.533-71.281L420.88,489.365l46.542,66.015a9.162,9.162,0,0,0,17.571,4.737Z" transform="translate(-192.517 -257.933)" fill="#a0616a"/>
      <path id="Path_68" data-name="Path 68" d="M442.748,485.1l-17.943,10.2a4.086,4.086,0,0,1-5.829-2.075l-7.439-19.186A11.349,11.349,0,1,1,431.3,462.875l12.64,16.149a4.086,4.086,0,0,1-1.2,6.071Z" transform="translate(-190.878 -254.995)" fill="#009797"/>
      <path id="Path_69" data-name="Path 69" d="M611.072,519.614H266.644a5.514,5.514,0,1,0,0,11.029H276.4V650.683a5.514,5.514,0,1,0,11.029,0V541.235l61.819,112.051a5.514,5.514,0,1,0,9.551-5.514L294.176,530.643H589.44v.071L524.855,647.772a5.514,5.514,0,1,0,9.551,5.514l55.034-99.75V650.68a5.514,5.514,0,1,0,11.028,0V533.55l1.6-2.907h9a5.514,5.514,0,1,0,0-11.029Z" transform="translate(-168.29 -264.475)" fill="#3f3d56"/>
      <rect id="Rectangle_20" data-name="Rectangle 20" width="72.958" height="5.938" rx="2.969" transform="translate(230.271 251.746)" fill="#ccc"/>
      <path id="Path_70" data-name="Path 70" d="M544.147,513.211h-75.5a5.52,5.52,0,0,1-5.514-5.514V466.128a5.52,5.52,0,0,1,5.514-5.514h75.5a5.52,5.52,0,0,1,5.514,5.514V507.7a5.52,5.52,0,0,1-5.514,5.514Z" transform="translate(-198.925 -255.527)" fill="#ccc"/>
      <circle id="Ellipse_35" data-name="Ellipse 35" cx="5.09" cy="5.09" r="5.09" transform="translate(302.38 226.296)" fill="#fff"/>
      <path id="Path_71" data-name="Path 71" d="M626.55,374.13V225.245a6.388,6.388,0,0,1,6.38-6.38H750.62a6.388,6.388,0,0,1,6.38,6.38V374.13a6.388,6.388,0,0,1-6.38,6.38H632.931A6.388,6.388,0,0,1,626.55,374.13Zm6.38-153.847a4.969,4.969,0,0,0-4.963,4.963V374.13a4.969,4.969,0,0,0,4.963,4.963H750.62a4.969,4.969,0,0,0,4.963-4.963V225.245a4.969,4.969,0,0,0-4.963-4.963Z" transform="translate(-223.708 -218.865)" fill="#e6e6e6"/>
      <path id="Path_72" data-name="Path 72" d="M711.215,293.427V262.856a3.194,3.194,0,0,1,3.191-3.191h25.906a3.194,3.194,0,0,1,3.191,3.191v30.571a3.194,3.194,0,0,1-3.191,3.191H714.406a3.194,3.194,0,0,1-3.191-3.19Z" transform="translate(-236.548 -225.053)" fill="#6c63ff"/>
      <path id="Path_73" data-name="Path 73" d="M651.88,310.141V279.57a3.194,3.194,0,0,1,3.191-3.191h25.906a3.194,3.194,0,0,1,3.191,3.191v30.571a3.194,3.194,0,0,1-3.191,3.191H655.071A3.194,3.194,0,0,1,651.88,310.141Z" transform="translate(-227.549 -227.587)" fill="#b5d6d6"/>
      <path id="Path_74" data-name="Path 74" d="M699.515,361.12V330.549a3.194,3.194,0,0,1,3.191-3.191h25.906a3.194,3.194,0,0,1,3.19,3.191V361.12a3.194,3.194,0,0,1-3.19,3.191H702.706a3.194,3.194,0,0,1-3.191-3.19Z" transform="translate(-234.774 -235.318)" fill="#07a5be"/>
      <circle id="Ellipse_36" data-name="Ellipse 36" cx="5.486" cy="5.486" r="5.486" transform="translate(656.825 4.541)" fill="#b5d6d6"/>
      <circle id="Ellipse_37" data-name="Ellipse 37" cx="5.486" cy="5.486" r="5.486" transform="translate(656.825 26.406)" fill="#b5d6d6"/>
      <circle id="Ellipse_38" data-name="Ellipse 38" cx="5.486" cy="5.486" r="5.486" transform="translate(656.825 48.271)" fill="#b5d6d6"/>
      <circle id="Ellipse_39" data-name="Ellipse 39" cx="5.486" cy="5.486" r="5.486" transform="translate(656.825 70.135)" fill="#b5d6d6"/>
      <circle id="Ellipse_40" data-name="Ellipse 40" cx="5.486" cy="5.486" r="5.486" transform="translate(633.919 4.541)" fill="#b5d6d6"/>
      <circle id="Ellipse_41" data-name="Ellipse 41" cx="5.486" cy="5.486" r="5.486" transform="translate(633.919 26.406)" fill="#b5d6d6"/>
      <circle id="Ellipse_42" data-name="Ellipse 42" cx="5.486" cy="5.486" r="5.486" transform="translate(633.919 48.271)" fill="#b5d6d6"/>
      <circle id="Ellipse_43" data-name="Ellipse 43" cx="5.486" cy="5.486" r="5.486" transform="translate(633.919 70.135)" fill="#b5d6d6"/>
      <circle id="Ellipse_44" data-name="Ellipse 44" cx="5.486" cy="5.486" r="5.486" transform="translate(611.014 4.541)" fill="#b5d6d6"/>
      <circle id="Ellipse_45" data-name="Ellipse 45" cx="5.486" cy="5.486" r="5.486" transform="translate(611.014 26.406)" fill="#b5d6d6"/>
      <circle id="Ellipse_46" data-name="Ellipse 46" cx="5.486" cy="5.486" r="5.486" transform="translate(611.014 48.271)" fill="#b5d6d6"/>
      <circle id="Ellipse_47" data-name="Ellipse 47" cx="5.486" cy="5.486" r="5.486" transform="translate(611.014 70.135)" fill="#b5d6d6"/>
      <circle id="Ellipse_48" data-name="Ellipse 48" cx="5.486" cy="5.486" r="5.486" transform="translate(588.109 4.541)" fill="#b5d6d6"/>
      <circle id="Ellipse_49" data-name="Ellipse 49" cx="5.486" cy="5.486" r="5.486" transform="translate(588.109 26.406)" fill="#b5d6d6"/>
      <circle id="Ellipse_50" data-name="Ellipse 50" cx="5.486" cy="5.486" r="5.486" transform="translate(588.109 48.271)" fill="#b5d6d6"/>
      <circle id="Ellipse_51" data-name="Ellipse 51" cx="5.486" cy="5.486" r="5.486" transform="translate(588.109 70.135)" fill="#b5d6d6"/>
      <circle id="Ellipse_52" data-name="Ellipse 52" cx="5.486" cy="5.486" r="5.486" transform="translate(565.203 4.541)" fill="#b5d6d6"/>
      <circle id="Ellipse_53" data-name="Ellipse 53" cx="5.486" cy="5.486" r="5.486" transform="translate(565.203 26.406)" fill="#b5d6d6"/>
      <circle id="Ellipse_54" data-name="Ellipse 54" cx="5.486" cy="5.486" r="5.486" transform="translate(565.203 48.271)" fill="#b5d6d6"/>
      <circle id="Ellipse_55" data-name="Ellipse 55" cx="5.486" cy="5.486" r="5.486" transform="translate(565.203 70.135)" fill="#b5d6d6"/>
      <circle id="Ellipse_56" data-name="Ellipse 56" cx="5.486" cy="5.486" r="5.486" transform="translate(542.298 4.541)" fill="#b5d6d6"/>
      <circle id="Ellipse_57" data-name="Ellipse 57" cx="5.486" cy="5.486" r="5.486" transform="translate(542.298 26.406)" fill="#b5d6d6"/>
      <circle id="Ellipse_58" data-name="Ellipse 58" cx="5.486" cy="5.486" r="5.486" transform="translate(542.298 48.271)" fill="#b5d6d6"/>
      <circle id="Ellipse_59" data-name="Ellipse 59" cx="5.486" cy="5.486" r="5.486" transform="translate(542.298 70.135)" fill="#b5d6d6"/>
      <path id="Path_75" data-name="Path 75" d="M823.356,448.041a9.332,9.332,0,0,1,6.59-12.27,8.993,8.993,0,0,1,1.231-.2l20.615-36.14-5.206-8.944,12.958-10,9.914,13.772a9.457,9.457,0,0,1-.221,11.291l-28.3,36.236a8.936,8.936,0,0,1,.263.878,9.332,9.332,0,0,1-7.94,11.443,9.078,9.078,0,0,1-1.143.071,9.363,9.363,0,0,1-8.76-6.139Z" transform="translate(-253.469 -243.376)" fill="#ffb8b8"/>
      <path id="Path_76" data-name="Path 76" d="M621.636,443.717h-10.4L606.288,403.6h15.35Z" transform="translate(-91.974 -61.208)" fill="#ffb8b8"/>
      <path id="Path_77" data-name="Path 77" d="M601.105,447.384h20.058v12.629H588.476a12.629,12.629,0,0,1,12.629-12.629Z" transform="translate(-89.272 -67.848)" fill="#2f2e41"/>
      <path id="Path_78" data-name="Path 78" d="M722.636,443.717h-10.4L707.288,403.6h15.35Z" transform="translate(-107.291 -61.208)" fill="#ffb8b8"/>
      <path id="Path_79" data-name="Path 79" d="M702.105,447.384h20.058v12.629H689.476A12.629,12.629,0,0,1,702.105,447.384Z" transform="translate(-104.589 -67.848)" fill="#2f2e41"/>
      <path id="Path_80" data-name="Path 80" d="M864.224,379.281l-23.351,8.873-5.7-15.836a9.474,9.474,0,0,1,4.242-11.453h0a9.474,9.474,0,0,1,12.1,2.362Z" transform="translate(-255.261 -240.213)" fill="#6c63ff"/>
      <path id="Path_81" data-name="Path 81" d="M773.012,602.961l-19.583-4.467a4.231,4.231,0,0,1-3.234-4.767c7.858-49.805,15.418-78.973,34.9-116.013.272-.691,3.315-14.709,5.3-24a4.218,4.218,0,0,1,3.575-4.262l36.516-5.62a4.725,4.725,0,0,1,1.714-.254l.365.07,0,.359c0,.372-.374.424-.509.45l-.485.075a5.666,5.666,0,0,1,1.506,1.024c16,19.244,24.32,82.323,34.887,152.011a3.8,3.8,0,0,1-1.1,3.094,4.185,4.185,0,0,1-3,1.357l-23.33.568a4.226,4.226,0,0,1-4.271-3.578L820.54,508.2a3.371,3.371,0,0,0-6.358-.981c-12.678,25.819-24.5,48.148-36.145,92.7a4.2,4.2,0,0,1-4.065,3.161,4.268,4.268,0,0,1-.951-.107Z" transform="translate(-242.452 -252.944)" fill="#2f2e41"/>
      <path id="Path_82" data-name="Path 82" d="M798.956,441.954a4.242,4.242,0,0,1-1.767-3.011c-2.99-27.919-.908-49.767,6.368-66.794a21.2,21.2,0,0,1,14.056-12.029l18.876-.953.1.048a22.061,22.061,0,0,1,12.063,23.4c-6.071,16-11.154,32.661-7.277,46.1a4.346,4.346,0,0,1-.411,3.379,4.143,4.143,0,0,1-2.643,1.959l-35.954,8.552A4.211,4.211,0,0,1,798.956,441.954Z" transform="translate(-249.386 -240.142)" fill="#b5d6d6"/>
      <path id="Path_83" data-name="Path 83" d="M781.25,401.172l-36.2-28.56a8.921,8.921,0,0,1-.879.26,9.355,9.355,0,0,1-7.481-1.435,9.335,9.335,0,1,1,14.429-9.784,8.974,8.974,0,0,1,.194,1.232l36.039,20.79,8.969-5.163,9.932,13.006-13.925,9.926a9.283,9.283,0,0,1-11.079-.27Z" transform="translate(-239.806 -239.426)" fill="#ffb8b8"/>
      <path id="Path_84" data-name="Path 84" d="M820.918,397.234l-20.656-14.046,9.708-13.749a9.474,9.474,0,0,1,11.817-3.088h0a9.474,9.474,0,0,1,5,11.269Z" transform="translate(-250.052 -241.092)" fill="#6c63ff"/>
      <circle id="Ellipse_60" data-name="Ellipse 60" cx="20.836" cy="20.836" r="20.836" transform="translate(559.964 70.302)" fill="#ffb8b8"/>
      <path id="Path_85" data-name="Path 85" d="M823.429,318.041c-5.356,3.665-12.386,7.433-17.857,3.53a9.954,9.954,0,0,1-3.267-11.474c2.619-7.49,9.815-10.787,16.7-13.315,8.945-3.286,18.686-5.9,27.92-3.547s17.4,11.294,15.729,20.677c-1.34,7.545-8.458,13.824-7.448,21.421,1.018,7.645,9.615,11.67,17.205,13.036s16.085,1.805,21.54,7.258c6.956,6.956,5.222,19.387-1.327,26.731s-16.43,10.672-26.005,12.936c-12.687,3-26.408,4.574-38.457-.4s-21.426-18.37-17.935-30.931c1.474-5.306,4.947-9.789,8.3-14.155s6.755-8.93,8.036-14.285c1.067-4.463.277-9.645-2.682-12.992a3.764,3.764,0,0,1-.5-4.4Z" transform="translate(-250.269 -230.007)" fill="#2f2e41"/>
    </g>
  </g>
</svg>
