<svg xmlns="http://www.w3.org/2000/svg" xmlns:xlink="http://www.w3.org/1999/xlink" width="603.178" height="436.101" viewBox="0 0 603.178 436.101">
  <defs>
    <clipPath id="clip-path">
      <rect id="Rectangle_26" data-name="Rectangle 26" width="603.178" height="436.101" fill="none"/>
    </clipPath>
  </defs>
  <g id="Repeat_Grid_3" data-name="Repeat Grid 3" clip-path="url(#clip-path)">
    <g id="Group_22" data-name="Group 22" transform="translate(0 0)">
      <path id="Path_86" data-name="Path 86" d="M234.292,592.081a6.142,6.142,0,0,0-9.357-1.065l-19.394-10.01,1.206,11.277,18.232,7.775a6.175,6.175,0,0,0,9.314-7.979Z" transform="translate(-144.871 -282.942)" fill="#a0616a"/>
      <path id="Path_87" data-name="Path 87" d="M194.818,570.626a2.749,2.749,0,0,1-2.241.024l-18.422-7.991a28.323,28.323,0,0,1-14.33-13.864l-9.685-20.443a8.856,8.856,0,0,1,13.986-10.86l17.024,31.585,15.719,11.874a2.758,2.758,0,0,1,.969,3.006L196.3,568.94a2.744,2.744,0,0,1-1.48,1.685Z" transform="translate(-122.63 -256.948)" fill="#009797"/>
      <circle id="Ellipse_61" data-name="Ellipse 61" cx="15.001" cy="15.001" r="15.001" transform="translate(12.08 217.361)" fill="#a0616a"/>
      <path id="Path_88" data-name="Path 88" d="M54.288,684.238h7.487l3.563-28.882H54.286Z" transform="translate(-21.131 -255.09)" fill="#a0616a"/>
      <path id="Path_89" data-name="Path 89" d="M0,0H23.534V9.092H9.092A9.092,9.092,0,0,1,0,0H0Z" transform="translate(55.084 436.101) rotate(179.997)" fill="#2f2e41"/>
      <path id="Path_90" data-name="Path 90" d="M14.286,684.238h7.487l3.563-28.882H14.281Z" transform="translate(-5.559 -255.09)" fill="#a0616a"/>
      <path id="Path_91" data-name="Path 91" d="M0,0H23.534V9.092H9.092A9.092,9.092,0,0,1,0,0H0Z" transform="translate(30.653 436.1) rotate(179.997)" fill="#2f2e41"/>
      <path id="Path_92" data-name="Path 92" d="M115.78,718.047a2.748,2.748,0,0,1-.657-2.174l13.108-98.323,32.571,5.532L164.278,621l-8.987,93.29a2.756,2.756,0,0,1-2.5,2.421l-9.863.822a2.748,2.748,0,0,1-2.967-2.9l2.554-44.428a.305.305,0,0,0-.6-.1L129.279,716.95a2.753,2.753,0,0,1-2.654,2.033h-8.777a2.748,2.748,0,0,1-2.068-.938Z" transform="translate(-109.668 -297.167)" fill="#2f2e41"/>
      <path id="Path_93" data-name="Path 93" d="M138.792,581.2a2.158,2.158,0,0,0-2.758-.115l-6.512,5.065a2.748,2.748,0,0,1-4.328-1.409C122,573.556,114.763,545.4,116.546,525.58c1.011-11.234,10.711-19.771,21.624-19.056,7.461.5,12.369,4.8,14.589,12.792,5.45,19.619,11.438,55.606,12.582,62.621a2.736,2.736,0,0,1-1.3,2.8,20.119,20.119,0,0,1-10.195,2.871C149.494,587.61,144.28,586.1,138.792,581.2Z" transform="translate(-110.122 -253.935)" fill="#009797"/>
      <path id="Path_94" data-name="Path 94" d="M143.277,623.383a6.142,6.142,0,0,0-6.706-6.613l-9.083-19.845-6.011,9.618,9.547,17.371a6.175,6.175,0,0,0,12.252-.531Z" transform="translate(-112.15 -289.138)" fill="#a0616a"/>
      <path id="Path_95" data-name="Path 95" d="M120.969,584.292a2.751,2.751,0,0,1-1.778-1.364l-9.564-17.656a28.323,28.323,0,0,1-2.72-19.751l4.995-22.062a8.855,8.855,0,1,1,17.71.087l-6.1,35.359,5.041,19.044a2.758,2.758,0,0,1-1.093,2.964l-4.29,2.967a2.747,2.747,0,0,1-2.2.413Z" transform="translate(-106.207 -257.112)" fill="#009797"/>
      <path id="Path_96" data-name="Path 96" d="M32.822,460.644l-5.5,23.209,7.94,19.544-5.5-18.934Z" transform="translate(-10.636 -179.3)" opacity="0.2"/>
      <path id="Path_97" data-name="Path 97" d="M127.824,473a10.1,10.1,0,0,1-3.9-.706c-.546-.211-1.113-.384-1.658-.594-4.814-1.86-7.985-6.987-8.1-12.146a17.49,17.49,0,0,1,6.526-13.467,25.257,25.257,0,0,1,14.252-5.386c5.543-.422,11.784.983,14.881,5.6a4.862,4.862,0,0,1,.912,4.2,2.688,2.688,0,0,1-.758,1.164c-1.383,1.231-2.762.305-4.172.224a4.614,4.614,0,0,0-4.3,3.294,9.925,9.925,0,0,0,.155,5.736,14.328,14.328,0,0,1,.722,3.487,3.506,3.506,0,0,1-1.453,3.087c-1.211.733-2.8.305-4.013-.423a28.263,28.263,0,0,0-3.568-2.285c-1.308-.538-3.067-.418-3.829.774a4.236,4.236,0,0,0-.484,1.4c-.683,3.112-.526,2.929-1.209,6.04Z" transform="translate(-109.303 -228.302)" fill="#2f2e41"/>
      <path id="Path_98" data-name="Path 98" d="M623.878,323.466H253.146a5.331,5.331,0,0,0-5.326,5.326V580.01a5.331,5.331,0,0,0,5.326,5.326H623.878a5.321,5.321,0,0,0,4.049-1.869,1.247,1.247,0,0,0,.116-.146,4.991,4.991,0,0,0,.763-1.289,5.193,5.193,0,0,0,.4-2.022V423.625h-1.521V580.01a3.774,3.774,0,0,1-.629,2.089,3.943,3.943,0,0,1-1.441,1.295,3.775,3.775,0,0,1-1.741.421H253.146a3.81,3.81,0,0,1-3.805-3.8V328.792a3.81,3.81,0,0,1,3.805-3.805H623.878a3.811,3.811,0,0,1,3.811,3.806v33.756h1.521V328.792a5.331,5.331,0,0,0-5.332-5.326Z" transform="translate(-161.328 -182.698)" fill="#3f3d56"/>
      <rect id="Rectangle_21" data-name="Rectangle 21" width="379.867" height="1.523" transform="translate(87.25 162.116)" fill="#3f3d56"/>
      <circle id="Ellipse_62" data-name="Ellipse 62" cx="4.567" cy="4.567" r="4.567" transform="translate(95.624 147.622)" fill="#ccc"/>
      <circle id="Ellipse_63" data-name="Ellipse 63" cx="4.567" cy="4.567" r="4.567" transform="translate(108.755 147.622)" fill="#ccc"/>
      <circle id="Ellipse_64" data-name="Ellipse 64" cx="4.567" cy="4.567" r="4.567" transform="translate(121.887 147.622)" fill="#ccc"/>
      <path id="Path_99" data-name="Path 99" d="M447.587,587.623A9.454,9.454,0,0,1,439,574.32l10.881-24.278a81.385,81.385,0,1,1,30.773,17.141l-27.771,18.8a9.426,9.426,0,0,1-5.293,1.64Zm56.152-167.858a69.713,69.713,0,0,0-43.429,124.277l3.428,2.734L452.028,572.9l26.868-18.19,2.653.891a69.734,69.734,0,1,0,22.189-135.834Z" transform="translate(-229.388 -215.777)" fill="#3f3d56"/>
      <circle id="Ellipse_65" data-name="Ellipse 65" cx="11.311" cy="11.311" r="11.311" transform="translate(263.037 258.659)" fill="#3f3d56"/>
      <circle id="Ellipse_66" data-name="Ellipse 66" cx="11.311" cy="11.311" r="11.311" transform="translate(230.988 258.659)" fill="#3f3d56"/>
      <circle id="Ellipse_67" data-name="Ellipse 67" cx="11.311" cy="11.311" r="11.311" transform="translate(295.086 258.659)" fill="#3f3d56"/>
      <path id="Path_100" data-name="Path 100" d="M949.5,455.48H842.006a4.886,4.886,0,1,1,0-9.772H949.5a4.886,4.886,0,1,1,0,9.772Z" transform="translate(-390.706 -230.279)" fill="#ccc"/>
      <path id="Path_101" data-name="Path 101" d="M879.26,421.48H842a4.886,4.886,0,0,1,0-9.772H879.26a4.886,4.886,0,1,1,0,9.772Z" transform="translate(-390.705 -217.045)" fill="#ccc"/>
      <circle id="Ellipse_68" data-name="Ellipse 68" cx="20.766" cy="20.766" r="20.766" transform="translate(381.845 189.623)" fill="#009797"/>
      <path id="Path_102" data-name="Path 102" d="M908.754,385.456H715.143a10.4,10.4,0,0,0-10.383,10.383v42.753a10.4,10.4,0,0,0,10.383,10.383H908.754a10.4,10.4,0,0,0,10.383-10.383V395.839A10.4,10.4,0,0,0,908.754,385.456Zm9.161,53.136a9.172,9.172,0,0,1-9.161,9.161H715.143a9.172,9.172,0,0,1-9.161-9.161V395.839a9.172,9.172,0,0,1,9.161-9.161H908.754a9.172,9.172,0,0,1,9.161,9.161Z" transform="translate(-339.187 -206.827)" fill="#3f3d56"/>
      <circle id="Ellipse_69" data-name="Ellipse 69" cx="14.048" cy="14.048" r="14.048" transform="translate(564.682 167.636)" fill="#009797"/>
      <path id="Path_103" data-name="Path 103" d="M1052.936,392.818a.611.611,0,0,1-.179-.432V376.839a.611.611,0,1,1,1.221,0v15.548a.611.611,0,0,1-1.043.432Z" transform="translate(-474.641 -203.235)" fill="#fff"/>
      <path id="Path_104" data-name="Path 104" d="M1040.216,390a.611.611,0,0,1,.432-1.043H1056.2a.611.611,0,1,1,0,1.222h-15.548a.611.611,0,0,1-.432-.179Z" transform="translate(-469.689 -208.189)" fill="#fff"/>
      <path id="Path_105" data-name="Path 105" d="M1041.393,696.163H1012.07c0,.843-30.221,1.527-30.221,1.527a7.855,7.855,0,0,0-1.289,1.222,7.58,7.58,0,0,0-1.771,4.886v1.222a7.635,7.635,0,0,0,7.635,7.635h54.969a7.641,7.641,0,0,0,7.635-7.635V703.8A7.645,7.645,0,0,0,1041.393,696.163Z" transform="translate(-445.85 -327.766)" fill="#3f3d56"/>
      <rect id="Rectangle_22" data-name="Rectangle 22" width="7.94" height="51.304" transform="translate(564.393 384.584)" fill="#3f3d56"/>
      <path id="Path_106" data-name="Path 106" d="M1046.037,801.327c0,.855-12.032.332-26.874.332s-26.874.526-26.874-.332,12.032-7.661,26.874-7.661S1046.037,800.466,1046.037,801.327Z" transform="translate(-451.104 -365.718)" fill="#3f3d56"/>
      <circle id="Ellipse_70" data-name="Ellipse 70" cx="17.101" cy="17.101" r="17.101" transform="translate(553.809 265.442)" fill="#2f2e41"/>
      <path id="Path_107" data-name="Path 107" d="M858.031,683.769h-7.488l-3.563-28.882h11.055Z" transform="translate(-329.678 -254.907)" fill="#ffb8b8"/>
      <path id="Path_108" data-name="Path 108" d="M838.261,698.671H852.7v9.092H829.169a9.092,9.092,0,0,1,9.092-9.092Z" transform="translate(-322.745 -271.95)" fill="#2f2e41"/>
      <path id="Path_109" data-name="Path 109" d="M841.381,675.663l-7.146-2.242,5.25-28.621,10.544,3.309Z" transform="translate(-324.717 -250.981)" fill="#ffb8b8"/>
      <path id="Path_110" data-name="Path 110" d="M9.092,0H23.533V9.092H0A9.092,9.092,0,0,1,9.092,0Z" transform="translate(496.38 416.075) rotate(17.423)" fill="#2f2e41"/>
      <path id="Path_111" data-name="Path 111" d="M1007.262,681.2a23.111,23.111,0,0,0-.928-4.288l-1.4-1.759-3.64-4.568-.159.006c-.269.012-1.387.073-3.115.208H998c-1.069.085-2.376.2-3.86.336-.391.043-.8.079-1.222.122v6.376h7.634a1.527,1.527,0,0,1,1.515,1.332c.006.067.012.128.012.2a1.527,1.527,0,0,1-1.527,1.527H956.215a17.355,17.355,0,0,0-1.625,1.222,9.089,9.089,0,0,0-3.207,4.8c-2.59,11.385-7.311,32.615-8.7,38.851a2.771,2.771,0,0,0,.824,2.614,2.711,2.711,0,0,0,.9.556l5.509,2.064a2.938,2.938,0,0,0,.7.165c.031,0,.055.006.086.006a1.571,1.571,0,0,0,.171.006,2.767,2.767,0,0,0,2.571-1.771l4.349-11.409,6.7-17.59,2.651-6.957c3.072.721,28.846,6.425,37.476-2.767a9.814,9.814,0,0,0,1.979-3.121A12.7,12.7,0,0,0,1007.262,681.2Z" transform="translate(-431.77 -317.81)" fill="#2f2e41"/>
      <path id="Path_112" data-name="Path 112" d="M1019.8,685.586c-.134-.544-.287-1.105-.464-1.673l-5.039-6.327-.159.006c-.318.018-1.826.1-4.141.287-2.626.22-6.3.574-10.42,1.13-.122.012-.25.031-.373.049-.4.055-.812.11-1.221.171v1.13h7.635a1.527,1.527,0,0,1,1.515,1.332c.006.067.012.128.012.2a1.527,1.527,0,0,1-1.527,1.527H978.634c-1.179.385-2.315.788-3.4,1.222-5.7,2.26-9.974,5.222-10.847,9.076-.293,1.295-.617,2.718-.959,4.233-1.27,5.631-2.816,12.527-4.214,18.793v.006c-.287,1.295-.574,2.553-.849,3.774-1.167,5.253-2.156,9.705-2.681,12.044-.012.067-.024.128-.037.2v.012a2.849,2.849,0,0,0,.171,1.4l.006.006v.006a2.706,2.706,0,0,0,.794,1.093,2.808,2.808,0,0,0,.788.458l5.509,2.064a2.8,2.8,0,0,0,.959.177,2.708,2.708,0,0,0,1.313-.336,2.749,2.749,0,0,0,1.258-1.435L978.3,705.075l1.838-4.831c3.072.721,28.846,6.419,37.476-2.767a10.317,10.317,0,0,0,2.736-6.761A18.124,18.124,0,0,0,1019.8,685.586Z" transform="translate(-436.832 -320.534)" fill="#2f2e41"/>
      <path id="Path_113" data-name="Path 113" d="M1040.132,599.287c-.1-.116-.2-.232-.312-.342a14.947,14.947,0,0,0-12.808-4.513,48.459,48.459,0,0,0-6.053,1.191,15.257,15.257,0,0,0-6.828,3.829,14.911,14.911,0,0,0-4.526,11.116c.024.837.03,1.692.018,2.559,0,.4-.006.812-.012,1.222h6.022a3.244,3.244,0,0,1,.776.092,3.366,3.366,0,0,1,2.583,3.268V646.12c.409.116.818.232,1.221.354.128.043.25.079.373.116.14.043.281.086.415.128q1.86.577,3.634,1.222h1.991a1.527,1.527,0,0,1,1.515,1.332c.415.165.818.329,1.215.494,1.411.586,2.748,1.173,3.976,1.741,1.655.757,3.127,1.478,4.361,2.107a2.8,2.8,0,0,0,1.252.305,2.687,2.687,0,0,0,1.588-.525,3.335,3.335,0,0,0,.275-.226,2.749,2.749,0,0,0,.837-2.431,78.237,78.237,0,0,1-.55-14.475c.171-4.062.538-8.227,1.014-12.252.257-2.18.543-4.318.843-6.376.287-1.967.592-3.854.892-5.637a15.029,15.029,0,0,0-3.713-12.71Z" transform="translate(-457.842 -288.117)" fill="#009797"/>
      <path id="Path_114" data-name="Path 114" d="M1009.706,602.916a7.239,7.239,0,0,0-.965-.336,7.024,7.024,0,0,0-8.27,3.988l-4.2,9.687-.525,1.221h14.493a3.25,3.25,0,0,1,.776.092l.489-1.13,1.857-4.288A7.03,7.03,0,0,0,1009.706,602.916Z" transform="translate(-452.451 -291.245)" fill="#009797"/>
      <circle id="Ellipse_71" data-name="Ellipse 71" cx="15.001" cy="15.001" r="15.001" transform="translate(555.284 271.545)" fill="#ffb8b8"/>
      <path id="Path_115" data-name="Path 115" d="M1014.93,543.476a54.107,54.107,0,0,0,23.408,7.713l-2.467-2.957a18.13,18.13,0,0,0,5.6,1.112,6.134,6.134,0,0,0,5-2.34,5.705,5.705,0,0,0,.382-5.271,10.805,10.805,0,0,0-3.4-4.251,20.24,20.24,0,0,0-18.839-3.367,12.1,12.1,0,0,0-5.626,3.609c-1.422,1.754-4.16,3.318-3.432,5.455Z" transform="translate(-459.917 -264.301)" fill="#2f2e41"/>
      <path id="Path_116" data-name="Path 116" d="M1009.364,522.133a46.1,46.1,0,0,0-16.773-10.847c-4.055-1.5-8.468-2.43-12.707-1.577s-8.245,3.787-9.43,7.945c-.967,3.4.032,7.063,1.532,10.264s3.5,6.169,4.718,9.491a21.663,21.663,0,0,1-21.8,29.049c4.165.558,8,2.516,12.075,3.558s8.876.971,11.9-1.945c3.2-3.086,3.265-8.1,3.11-12.546l-.69-19.816c-.117-3.368-.217-6.845,1-9.99s4.1-5.9,7.473-5.869c2.555.022,4.815,1.569,6.864,3.1s4.214,3.155,6.762,3.381,5.45-1.656,5.259-4.2Z" transform="translate(-436.553 -255.064)" fill="#2f2e41"/>
      <path id="Path_117" data-name="Path 117" d="M1048.94,632.451l-8.563.232-.623,6.016-.141,1.393-13.412,6.022-1.221.55V657.37l1.221-.348,3.86-1.1h.018l17-4.843.2-.055a6.644,6.644,0,0,0,4.8-6.321l.043-7.1.037-5.234Z" transform="translate(-463.829 -302.933)" fill="#ffb8b8"/>
      <path id="Path_118" data-name="Path 118" d="M1059.824,608.822a7.025,7.025,0,1,0-14.023.861l.934,15.245a2.74,2.74,0,0,0,1.118,2.04,2.709,2.709,0,0,0,1.8.531l6.547-.4,1.985-.122a2.678,2.678,0,0,0,1.893-.922,1.912,1.912,0,0,0,.147-.183,2.729,2.729,0,0,0,.538-1.808Z" transform="translate(-471.928 -291.203)" fill="#009797"/>
      <path id="Path_119" data-name="Path 119" d="M987.287,658.717H986.5v-.079c-.4.055-.812.11-1.221.171v1.13h5.643Q989.144,659.3,987.287,658.717Zm0,0H986.5v-.079c-.4.055-.812.11-1.221.171v1.13h5.643Q989.144,659.3,987.287,658.717Zm5.625,0H986.5V629.706a4.587,4.587,0,0,0-3.316-4.4,4.305,4.305,0,0,0-1.264-.183H927.561a4.586,4.586,0,0,0-4.581,4.581v29.927a4.581,4.581,0,0,0,4.581,4.581h65.351a2.749,2.749,0,0,0,2.73-2.449,2.381,2.381,0,0,0,.018-.3,2.753,2.753,0,0,0-2.748-2.748Zm1.527,2.748a1.527,1.527,0,0,1-1.527,1.527H927.561a3.359,3.359,0,0,1-3.359-3.359V629.706a3.359,3.359,0,0,1,3.359-3.359h54.358a3.246,3.246,0,0,1,.776.092,3.366,3.366,0,0,1,2.584,3.268v30.233h7.635a1.527,1.527,0,0,1,1.515,1.332C994.433,661.337,994.439,661.4,994.439,661.465Zm-7.152-2.748H986.5v-.079c-.4.055-.812.11-1.221.171v1.13h5.643Q989.144,659.3,987.287,658.717Z" transform="translate(-424.126 -300.115)" fill="#3f3d56"/>
      <circle id="Ellipse_72" data-name="Ellipse 72" cx="3.665" cy="3.665" r="3.665" transform="translate(526.946 340.892)" fill="#009797"/>
      <path id="Path_120" data-name="Path 120" d="M420.5,161.164a5.31,5.31,0,0,0,.025.837l-19.178,16.1-5.719-2.071-4.253,8.223,12.5,5.952,20.967-23.529a5.3,5.3,0,1,0-4.345-5.508Z" transform="translate(-217.204 -117.575)" fill="#ffb8b8"/>
      <path id="Path_121" data-name="Path 121" d="M382.272,195.918l-18.521-6.685a6.816,6.816,0,1,1,4.629-12.822L386.9,183.1A2.271,2.271,0,0,1,388.266,186l-3.085,8.551a2.275,2.275,0,0,1-2.908,1.366Z" transform="translate(-204.7 -125.3)" fill="#b5d6d6"/>
      <path id="Path_122" data-name="Path 122" d="M268.529,207.037h6.189l2.945-23.875h-9.135Z" transform="translate(-104.522 -71.294)" fill="#ffb8b8"/>
      <path id="Path_123" data-name="Path 123" d="M0,0H19.453V7.516H7.516A7.516,7.516,0,0,1,0,0Z" transform="translate(182.133 141.491) rotate(179.997)" fill="#2f2e41"/>
      <path id="Path_124" data-name="Path 124" d="M243.484,196.716l5.063,3.56,16.141-17.834-7.473-5.253Z" transform="translate(-94.774 -68.969)" fill="#ffb8b8"/>
      <path id="Path_125" data-name="Path 125" d="M0,0H19.454V7.516H7.516A7.516,7.516,0,0,1,0,0H0Z" transform="translate(159.601 141.695) rotate(-144.895)" fill="#2f2e41"/>
      <path id="Path_126" data-name="Path 126" d="M383.534,244.739s15.447-1.823,12.674,8.2-33.666,18.68-33.666,18.68Z" transform="translate(-205.982 -152.004)" fill="#ffb8b8"/>
      <circle id="Ellipse_73" data-name="Ellipse 73" cx="12.4" cy="12.4" r="12.4" transform="translate(154.519 16.79)" fill="#ffb8b8"/>
      <path id="Path_127" data-name="Path 127" d="M310.929,239.543c-7.056-8.216-9.528-20.827,1.727-31.313a37.088,37.088,0,0,1,9.332-6.2l9.069-25.362a13.82,13.82,0,0,1,12.772-9.187,13.226,13.226,0,0,1,12.83,8.251,11.483,11.483,0,0,1,.356,8.13,130.6,130.6,0,0,1-10.581,24.211l.469,3.751,22.923,2.038-.214.348c-.112.183-11.33,17.275-25.682,28.62a23.583,23.583,0,0,1-14.771,5.486A24.475,24.475,0,0,1,310.929,239.543Z" transform="translate(-183.555 -121.978)" fill="#b5d6d6"/>
      <path id="Path_128" data-name="Path 128" d="M302.088,126.067c2.194-2.614,3.135-6.034,3.892-9.361,1.2-5.265,2.124-10.71,4.785-15.408s7.551-8.592,12.942-8.3c5.361.294,9.7,4.608,12,9.515a4.267,4.267,0,0,1,3.465.167c1.658.908,2.278,3.489.9,4.781a11.456,11.456,0,0,1,9.329-.233,11.276,11.276,0,0,1,6.831,9.569,6.148,6.148,0,0,1-1.634,4.612c-2.382,2.449-5.741,1.6-8.734.98-2.826-.589-6.268-.748-7.861,1.944a5.047,5.047,0,0,0-.489,3.688c.611,2.687,2.6,4.561,4.531,6.352l.316.586a13.863,13.863,0,0,1-7.123-26.73h0a2.458,2.458,0,0,1-2.207-3.684,11.687,11.687,0,0,0-5.965-1.488c-3.4.223-6.335,2.64-8.1,5.549s-2.565,6.284-3.379,9.589-1.688,6.674-3.578,9.5a15.126,15.126,0,0,1-24.233,1.243,12.071,12.071,0,0,0,14.325-2.883Z" transform="translate(-176.877 -92.986)" fill="#2f2e41"/>
      <circle id="Ellipse_74" data-name="Ellipse 74" cx="18.025" cy="18.025" r="18.025" transform="translate(198.263 30.825)" fill="#009797"/>
      <path id="Path_129" data-name="Path 129" d="M459.282,176a.781.781,0,0,1-.23-.554V155.5a.784.784,0,1,1,1.567,0v19.949a.784.784,0,0,1-1.338.554Z" transform="translate(-243.548 -117.012)" fill="#fff"/>
      <path id="Path_130" data-name="Path 130" d="M442.954,172.382a.784.784,0,0,1,.554-1.338h19.949a.784.784,0,1,1,0,1.567H443.5a.781.781,0,0,1-.554-.23Z" transform="translate(-237.192 -123.369)" fill="#fff"/>
      <path id="Path_131" data-name="Path 131" d="M417.022,190.933a5.32,5.32,0,0,0-.333.768l-24.2,6.418-4.3-4.305-7.345,5.635,8.789,10.7,28.98-12.386a5.3,5.3,0,1,0-1.592-6.833Z" transform="translate(-213.106 -130.027)" fill="#ffb8b8"/>
      <path id="Path_132" data-name="Path 132" d="M373,198.575,359.074,184.65a6.816,6.816,0,1,1,9.638-9.639l13.925,13.925a2.271,2.271,0,0,1,0,3.213l-6.426,6.426a2.275,2.275,0,0,1-3.213,0Z" transform="translate(-203.855 -124.136)" fill="#b5d6d6"/>
    </g>
  </g>
</svg>
