<svg xmlns="http://www.w3.org/2000/svg" width="20" height="19" viewBox="0 0 20 19">
  <g id="greenstar" fill="#fff">
    <path d="M 15.45674705505371 18.00479316711426 L 10.25002956390381 14.99824047088623 L 10 14.8538703918457 L 9.749970436096191 14.99824047088623 L 4.543253421783447 18.00479316711426 L 5.796689987182617 12.13020038604736 L 5.857059955596924 11.84727001190186 L 5.641860008239746 11.65392971038818 L 1.1715407371521 7.637734413146973 L 7.151939868927002 7.013169765472412 L 7.439310073852539 6.983150005340576 L 7.55679988861084 6.719180107116699 L 10 1.229671835899353 L 12.44320011138916 6.719180107116699 L 12.56068992614746 6.983150005340576 L 12.84807014465332 7.013169765472412 L 18.82846069335938 7.637724876403809 L 14.35813999176025 11.65392971038818 L 14.14293956756592 11.84727001190186 L 14.20331001281738 12.13020038604736 L 15.45674705505371 18.00479316711426 Z" stroke="none"/>
    <path d="M 10 2.459333419799805 L 8.01360034942627 6.922479629516602 L 7.778630256652832 7.450440406799316 L 7.203869819641113 7.510459899902344 L 2.343061447143555 8.018093109130859 L 5.976010322570801 11.28199005126953 L 6.40641975402832 11.66868019104004 L 6.285690307617188 12.23453998565674 L 5.266858100891113 17.00959014892578 L 9.499939918518066 14.56525039672852 L 10 14.2765007019043 L 10.50006008148193 14.56525039672852 L 14.73314189910889 17.00959014892578 L 13.71430969238281 12.23453998565674 L 13.59358024597168 11.66868019104004 L 14.02399063110352 11.28199005126953 L 17.65693855285645 8.018093109130859 L 12.79613018035889 7.510459899902344 L 12.22137069702148 7.450440406799316 L 11.98639965057373 6.922479629516602 L 10 2.459333419799805 M 10 0 L 12.89999961853027 6.515870094299316 L 20 7.257349967956543 L 14.69229984283447 12.02586936950684 L 16.18033981323242 19 L 10 15.43124008178711 L 3.819660186767578 19 L 5.307700157165527 12.02586936950684 L 0 7.257349967956543 L 7.100000381469727 6.515870094299316 L 10 0 Z" stroke="none" fill="#009797"/>
  </g>
</svg>
