<svg xmlns="http://www.w3.org/2000/svg" width="30.001" height="32" viewBox="0 0 30.001 32">
  <g id="Group_548" data-name="Group 548" transform="translate(-1134.999 -60)">
    <g id="Union_4" data-name="Union 4" transform="translate(11714 207.999)" fill="none" stroke-linecap="round" stroke-linejoin="round">
      <path d="M-10576-116a3,3,0,0,1-3-3v-22.9a3,3,0,0,1,3-3h5.961V-146a2,2,0,0,1,2-2h6.08a2,2,0,0,1,2,2v1.1h5.96a3,3,0,0,1,3,3V-119a3,3,0,0,1-3,3Z" stroke="none"/>
      <path d="M -10553.9990234375 -117.9986953735352 C -10553.447265625 -117.9986953735352 -10552.9990234375 -118.4473495483398 -10552.9990234375 -118.9988250732422 L -10552.9990234375 -141.9033203125 C -10552.9990234375 -142.4548034667969 -10553.447265625 -142.9034576416016 -10553.9990234375 -142.9034576416016 L -10559.958984375 -142.9034576416016 C -10561.0634765625 -142.9034576416016 -10561.958984375 -143.7988891601563 -10561.958984375 -144.9034576416016 L -10561.958984375 -145.9989318847656 C -10561.958984375 -145.9988098144531 -10561.958984375 -145.9987335205078 -10561.9599609375 -145.9987335205078 C -10561.9599609375 -145.9987335205078 -10561.9599609375 -145.9988708496094 -10561.9609375 -145.9991607666016 L -10568.0400390625 -145.9999542236328 L -10568.0400390625 -144.9034576416016 C -10568.0400390625 -143.7988891601563 -10568.935546875 -142.9034576416016 -10570.0400390625 -142.9034576416016 L -10576.0009765625 -142.9034576416016 C -10576.552734375 -142.9034576416016 -10577.0009765625 -142.4548034667969 -10577.0009765625 -141.9033203125 L -10577.0009765625 -118.9988250732422 C -10577.0009765625 -118.4473495483398 -10576.552734375 -117.9986953735352 -10576.0009765625 -117.9986953735352 L -10553.9990234375 -117.9986953735352 M -10553.9990234375 -115.9986953735352 L -10576.0009765625 -115.9986953735352 C -10577.6572265625 -115.9986953735352 -10579.0009765625 -117.3421096801758 -10579.0009765625 -118.9988250732422 L -10579.0009765625 -141.9033203125 C -10579.0009765625 -143.5600280761719 -10577.6572265625 -144.9034576416016 -10576.0009765625 -144.9034576416016 L -10570.0400390625 -144.9034576416016 L -10570.0400390625 -145.9999542236328 C -10570.0400390625 -147.1044311523438 -10569.1455078125 -147.9991607666016 -10568.041015625 -147.9991607666016 L -10561.9609375 -147.9991607666016 C -10560.8564453125 -147.9991607666016 -10559.958984375 -147.1044311523438 -10559.958984375 -145.9999542236328 L -10559.958984375 -144.9034576416016 L -10553.9990234375 -144.9034576416016 C -10552.3447265625 -144.9034576416016 -10550.9990234375 -143.5600280761719 -10550.9990234375 -141.9033203125 L -10550.9990234375 -118.9988250732422 C -10550.9990234375 -117.3421096801758 -10552.3447265625 -115.9986953735352 -10553.9990234375 -115.9986953735352 Z" stroke="none" fill="#707070"/>
    </g>
    <rect id="Rectangle_242" data-name="Rectangle 242" width="20" height="2" rx="1" transform="translate(1139 68)" fill="#656565"/>
    <rect id="Rectangle_243" data-name="Rectangle 243" width="20" height="2" rx="1" transform="translate(1139 73)" fill="#656565"/>
    <rect id="Rectangle_244" data-name="Rectangle 244" width="20" height="2" rx="1" transform="translate(1139 78)" fill="#656565"/>
    <rect id="Rectangle_245" data-name="Rectangle 245" width="10" height="2" rx="1" transform="translate(1139 83)" fill="#656565"/>
    <rect id="Rectangle_246" data-name="Rectangle 246" width="6" height="4" transform="translate(1159 80)" fill="#fff"/>
  </g>
</svg>
