<svg xmlns="http://www.w3.org/2000/svg" width="20" height="20" viewBox="0 0 20 20">
  <g id="menu-star" fill="none">
    <path d="M10,0l2.75,7.076L20,7.639l-5.55,4.937L16.18,20,10,15.975,3.82,20,5.55,12.576,0,7.639l7.25-.563Z" stroke="none"/>
    <path d="M 10 2.760540008544922 L 8.182080268859863 7.438139915466309 L 7.954319953918457 8.024169921875 L 7.327480316162109 8.072879791259766 L 2.420909881591797 8.454191207885742 L 6.21498966217041 11.82866954803467 L 6.659299850463867 12.22384071350098 L 6.524299621582031 12.80292987823486 L 5.358280181884766 17.80461311340332 L 9.454279899597168 15.13710975646973 L 10 14.78170967102051 L 10.54572010040283 15.13710975646973 L 14.64171981811523 17.80461311340332 L 13.47570037841797 12.80292987823486 L 13.34070014953613 12.22384071350098 L 13.78500938415527 11.82866954803467 L 17.5790901184082 8.454191207885742 L 12.67251968383789 8.072879791259766 L 12.04568004608154 8.024169921875 L 11.81791973114014 7.438139915466309 L 10 2.760540008544922 M 10 0 L 12.75 7.075889587402344 L 20 7.639320373535156 L 14.4495906829834 12.57588958740234 L 16.18033981323242 20 L 10 15.9750804901123 L 3.819660186767578 20 L 5.550410270690918 12.57588958740234 L 0 7.639320373535156 L 7.25 7.075889587402344 L 10 0 Z" stroke="none" fill="#000"/>
  </g>
</svg>
