<svg id="menu-tran" xmlns="http://www.w3.org/2000/svg" width="20" height="20" viewBox="0 0 20 20">
  <path id="Path_180" data-name="Path 180" d="M15.727,7l-3.273,3h2.455A4.722,4.722,0,0,1,10,14.5a5.154,5.154,0,0,1-2.291-.525L6.515,15.07A6.926,6.926,0,0,0,10,16a6.289,6.289,0,0,0,6.545-6H19ZM5.091,10A4.722,4.722,0,0,1,10,5.5a5.154,5.154,0,0,1,2.291.525L13.485,4.93A6.926,6.926,0,0,0,10,4a6.289,6.289,0,0,0-6.545,6H1l3.273,3,3.273-3Z"/>
  <path id="Path_181" data-name="Path 181" d="M0,0H20V20H0Z" fill="none"/>
</svg>
