<svg xmlns="http://www.w3.org/2000/svg" xmlns:xlink="http://www.w3.org/1999/xlink" width="567.599" height="400" viewBox="0 0 567.599 400">
  <defs>
    <clipPath id="clip-path">
      <rect id="Rectangle_237" data-name="Rectangle 237" width="567.599" height="400" fill="none"/>
    </clipPath>
  </defs>
  <g id="undraw_Questions_re_1fy7" clip-path="url(#clip-path)">
    <g id="undraw_Questions_re_1fy7-2" data-name="undraw_Questions_re_1fy7" transform="translate(0.021)">
      <path id="Path_64" data-name="Path 64" d="M30.911,0A30.911,30.911,0,1,1,0,30.911,30.911,30.911,0,0,1,30.911,0Z" transform="translate(258.952 337.33)" fill="#009797"/>
      <path id="Path_33" data-name="Path 33" d="M692.769,565.166c17.293-5.194,35.678-10.609,49.39-22.955,12.255-11.032,20.529-27.88,15.452-44.425-5.067-16.512-20.243-27.521-35.912-33-8.887-3.106-18.184-4.829-27.478-6.182-10.1-1.472-20.251-2.677-30.393-3.837q-61.6-7.046-123.673-8.609c-20.418-.514-40.832-.5-61.252-.206-18.237.265-37.444.258-54.363-7.493-13.156-6.028-25.1-16.994-28.76-31.4-4.233-16.635,3.574-33.574,14.77-45.622a119.7,119.7,0,0,1,19.915-16.609c7.718-5.332,15.707-10.286,23.869-14.909a332.384,332.384,0,0,1,50.24-23.163c8.565-3.115,17.256-5.8,26.024-8.28a222.705,222.705,0,0,0,21.984-7.041c13.831-5.51,26.987-14.851,30.5-30.159,3.333-14.509-2.285-30.26-12.139-41.038-11.4-12.47-28.585-17.936-45.062-18.821-18.5-.993-36.57,3.637-53.959,9.512C453.38,217.2,435.237,224.4,416.3,229.476a374.259,374.259,0,0,1-57.252,10.641c-9.463,1.008-19.212,2.146-28.731,1.374-7.978-.646-15.915-2.993-21.795-8.655-5.04-4.855-8.045-11.527-7.012-18.568.188-1.277,2.13-.735,1.944.538-1.257,8.571,4.569,16.469,11.749,20.515C323.5,240,333.6,240,342.838,239.468a361.416,361.416,0,0,0,59.48-8.6c19.213-4.389,37.741-10.661,56.244-17.363,17.576-6.365,35.547-12.577,54.322-13.955,16.293-1.2,33.432,1.177,47.625,9.692a52.686,52.686,0,0,1,24.571,34.283c2.856,13.994-1.1,28.078-11.692,37.844-10.967,10.111-26.005,14.433-40.021,18.412a367.061,367.061,0,0,0-52.006,18.614,326.463,326.463,0,0,0-48.92,27.5c-14.949,10.214-29.7,23.07-34.43,41.293A38.043,38.043,0,0,0,399.9,412.7a46.623,46.623,0,0,0,14.959,17.753c15,11.036,33.9,13.305,52.02,13.528,20.348.253,40.7-.433,61.052-.1q62.225,1.021,124.193,7.575,15.528,1.644,31.017,3.633a280.466,280.466,0,0,1,27.738,4.5c16.236,3.768,32.036,11.015,42.127,24.781a39.187,39.187,0,0,1,3.338,42.85c-7.749,15.247-22.265,24.946-37.68,31.314A267.279,267.279,0,0,1,693.3,567.1a1.009,1.009,0,0,1-.538-1.944Z" transform="translate(-218.243 -167.75)" fill="#c4e7e7"/>
      <circle id="Ellipse_18" data-name="Ellipse 18" cx="16.127" cy="16.127" r="16.127" transform="translate(68.448 30.575)" fill="#009797" opacity="0.23"/>
      <circle id="Ellipse_19" data-name="Ellipse 19" cx="16.127" cy="16.127" r="16.127" transform="translate(180.331 61.15)" fill="#009797" opacity="0.23"/>
      <circle id="Ellipse_20" data-name="Ellipse 20" cx="16.127" cy="16.127" r="16.127" transform="translate(275.08)" fill="#009797" opacity="0.23"/>
      <circle id="Ellipse_21" data-name="Ellipse 21" cx="16.127" cy="16.127" r="16.127" transform="translate(334.213 68.541)" fill="#009797" opacity="0.23"/>
      <circle id="Ellipse_22" data-name="Ellipse 22" cx="16.127" cy="16.127" r="16.127" transform="translate(254.248 147.834)" fill="#009797" opacity="0.23"/>
      <circle id="Ellipse_23" data-name="Ellipse 23" cx="16.127" cy="16.127" r="16.127" transform="translate(152.781 186.137)" fill="#009797" opacity="0.23"/>
      <circle id="Ellipse_24" data-name="Ellipse 24" cx="16.127" cy="16.127" r="16.127" transform="translate(260.296 245.942)" fill="#009797" opacity="0.23"/>
      <circle id="Ellipse_25" data-name="Ellipse 25" cx="16.127" cy="16.127" r="16.127" transform="translate(375.876 279.541)" fill="#009797" opacity="0.23"/>
      <circle id="Ellipse_26" data-name="Ellipse 26" cx="16.127" cy="16.127" r="16.127" transform="translate(510.942 272.149)" fill="#009797" opacity="0.23"/>
      <path id="Path_34" data-name="Path 34" d="M560.9,220.372a89.451,89.451,0,0,0-88.551,87.9c-.006.446-.009,3.582-.009,7.683a22.677,22.677,0,0,0,22.673,22.676h0a22.69,22.69,0,0,0,22.686-22.7c0-2.8,0-4.73,0-4.849a43.006,43.006,0,1,1,66.2,36.205l.008.009s-32.273,20.777-42.111,49.281h.008a63.168,63.168,0,0,0-2.6,17.987c0,2.5.147,24.407.432,42.185a23.375,23.375,0,0,0,23.378,23h0a23.385,23.385,0,0,0,23.381-23.526c-.1-16.281-.153-35.24-.153-36.615,0-17.5,16.883-34.939,30.752-46.31a93.271,93.271,0,0,0,32.078-51.07,58.3,58.3,0,0,0,1.68-12.655,89.2,89.2,0,0,0-89.85-89.2Z" transform="translate(-274.345 -174.675)" fill="#009797"/>
      <path id="Path_35" data-name="Path 35" d="M744.474,746.85h-566a.8.8,0,0,1,0-1.6h566a.8.8,0,0,1,0,1.6Z" transform="translate(-177.694 -346.85)" fill="#3f3d56"/>
      <circle id="Ellipse_27" data-name="Ellipse 27" cx="20.159" cy="20.159" r="20.159" transform="translate(402.12 143.128)" fill="#2f2e41"/>
      <path id="Path_36" data-name="Path 36" d="M567.077,566.617H558.84l-3.92-31.776h12.163Z" transform="translate(-182.05 -175.442)" fill="#a0616a"/>
      <path id="Path_37" data-name="Path 37" d="M547.115,578.626H563v10H537.109a10,10,0,0,1,10.006-10Z" transform="translate(-176.208 -189.805)" fill="#2f2e41"/>
      <path id="Path_38" data-name="Path 38" d="M662.077,566.617H653.84l-3.92-31.776h12.163Z" transform="translate(-213.213 -175.442)" fill="#a0616a"/>
      <path id="Path_39" data-name="Path 39" d="M642.115,578.626H658v10H632.109a10,10,0,0,1,10.006-10Z" transform="translate(-207.37 -189.805)" fill="#2f2e41"/>
      <circle id="Ellipse_28" data-name="Ellipse 28" cx="16.504" cy="16.504" r="16.504" transform="translate(402.711 150.555)" fill="#a0616a"/>
      <path id="Path_40" data-name="Path 40" d="M787.385,481.784l7.385-16.967a21.089,21.089,0,0,0-4.67-23.922,21.42,21.42,0,0,0-2.063-1.794,20.787,20.787,0,0,0-12.761-4.415,21.624,21.624,0,0,0-9,2c-.242.108-.477.222-.719.336-.464.222-.921.464-1.364.712a21.287,21.287,0,0,0-10.55,16.047l-3.259,27.309c-.82,2.144-30.064,79.555-19.836,138.655a3,3,0,0,0,2.567,2.466l10.369,1.411a3.024,3.024,0,0,0,3.367-2.372l17.4-82.928a2.352,2.352,0,0,1,4.569-.155l24.581,87.209a3,3,0,0,0,2.9,2.2,3.446,3.446,0,0,0,.585-.054l12.667-2.439a3,3,0,0,0,2.439-3.232C810.118,601.1,800.226,497.121,787.385,481.784Z" transform="translate(-358.333 -244.976)" fill="#2f2e41"/>
      <path id="Path_41" data-name="Path 41" d="M706.078,418.465a6.757,6.757,0,0,0,7.119,7.526l9.226,22.17,6.98-10.342-9.831-19.467a6.794,6.794,0,0,0-13.493.114Z" transform="translate(-351.003 -237.671)" fill="#a0616a"/>
      <path id="Path_42" data-name="Path 42" d="M796.451,524.725a6.757,6.757,0,0,0,5.663-8.677l19.409-14.14-11.686-4.376-16.641,14.1a6.794,6.794,0,0,0,3.255,13.1Z" transform="translate(-378.151 -265.592)" fill="#a0616a"/>
      <path id="Path_43" data-name="Path 43" d="M741.454,471.464a11.459,11.459,0,0,1-2.217-.218,10.957,10.957,0,0,1-8.029-6.462l-12.925-15.76a3.024,3.024,0,0,1,.747-4.489l9.2-5.692a3.024,3.024,0,0,1,4.176,1l9.109,15.008,17.448-12.894a6.532,6.532,0,0,1,7.6,10.457L749.147,468.3a10.922,10.922,0,0,1-7.693,3.165Z" transform="translate(-354.797 -246.192)" fill="#2f2e41"/>
      <path id="Path_44" data-name="Path 44" d="M817.785,497.573h-.071a3.029,3.029,0,0,1-2.225-1.055l-8.175-9.537a3.024,3.024,0,0,1,.618-4.484l15.309-10.206-13.868-16.673a6.532,6.532,0,0,1,10-8.187L836.229,463.9a11.1,11.1,0,0,1-2.47,18.1l-13.775,14.618a3.029,3.029,0,0,1-2.2.949Z" transform="translate(-383.987 -248.598)" fill="#2f2e41"/>
      <path id="Path_45" data-name="Path 45" d="M790.85,457.988a3.1,3.1,0,0,1-.391-.025,3,3,0,0,1-2.494-2.062l-6.143-18.835a2.072,2.072,0,0,1,1.071-2.5l.2-.094c.181-.086.359-.171.542-.252a21.888,21.888,0,0,1,9.139-2.031,21.051,21.051,0,0,1,11.532,3.465,2.1,2.1,0,0,1,.6,2.885l-11.524,18.051a2.994,2.994,0,0,1-2.538,1.4Z" transform="translate(-375.831 -244.157)" fill="#e6e6e6"/>
      <circle id="Ellipse_29" data-name="Ellipse 29" cx="6.597" cy="6.597" r="6.597" transform="translate(431.576 141.093)" fill="#2f2e41"/>
      <path id="Path_46" data-name="Path 46" d="M787.582,361.365h0a17.471,17.471,0,0,0-17.471,17.471v7.392H779.2l4.348-7.392,1.3,7.392h27.591l-7.392-7.392A17.471,17.471,0,0,0,787.582,361.365Z" transform="translate(-372.023 -220.925)" fill="#2f2e41"/>
      <path id="Path_47" data-name="Path 47" d="M834.809,361.973a10.18,10.18,0,0,1,11.075-6.989c4.2.7,7.526,4.082,9.508,7.856s2.895,8,4.226,12.047,3.219,8.12,6.581,10.741,8.519,3.332,11.82.636a13.519,13.519,0,0,1-25.184,4.825c-1.742-3.1-2.191-6.731-2.708-10.248s-1.187-7.157-3.267-10.039-5.973-4.766-9.273-3.453Z" transform="translate(-393.245 -218.802)" fill="#2f2e41"/>
      <path id="Path_48" data-name="Path 48" d="M501.26,345.936h0a22.677,22.677,0,0,1-22.675-22.672c0-4.106,0-7.242.009-7.688a88.37,88.37,0,0,1,10.321-40.257,88.566,88.566,0,0,0-17.041,51.009c-.006.446-.009,3.582-.009,7.683a22.677,22.677,0,0,0,22.672,22.676h0a22.693,22.693,0,0,0,21.833-16.519,22.594,22.594,0,0,1-15.11,5.768Z" transform="translate(-274.19 -192.7)" fill="#3f3d56"/>
      <path id="Path_49" data-name="Path 49" d="M589.434,286.2a43.006,43.006,0,0,1,37.4,60.083,43.006,43.006,0,1,0-72.187-45.012A42.92,42.92,0,0,1,589.434,286.2Z" transform="translate(-301.345 -192.722)" fill="#3f3d56"/>
      <path id="Path_50" data-name="Path 50" d="M601.9,545.643h0a23.378,23.378,0,0,1-23.378-23.005c-.284-17.769-.431-39.673-.431-42.176a63.166,63.166,0,0,1,2.6-17.987h-.008a63.878,63.878,0,0,1,3.692-8.534,73.951,73.951,0,0,0-10.412,19.286h.008a63.17,63.17,0,0,0-2.6,17.987c0,2.5.147,24.407.432,42.185a23.376,23.376,0,0,0,23.378,23h0a23.384,23.384,0,0,0,22.443-16.826A23.291,23.291,0,0,1,601.9,545.643Z" transform="translate(-306.83 -251.292)" fill="#3f3d56"/>
      <path id="Path_51" data-name="Path 51" d="M126.54,567.073h8.238L138.7,535.3H126.538Z" transform="translate(-41.529 -175.592)" fill="#ffb8b8"/>
      <path id="Path_52" data-name="Path 52" d="M0,0H25.892V10H10A10,10,0,0,1,0,0Z" transform="translate(109.135 399.131) rotate(179.997)" fill="#2f2e41"/>
      <path id="Path_53" data-name="Path 53" d="M82.538,567.073h8.238L94.7,535.3H82.533Z" transform="translate(-27.094 -175.592)" fill="#ffb8b8"/>
      <path id="Path_54" data-name="Path 54" d="M0,0H25.892V10H10A10,10,0,0,1,0,0Z" transform="translate(79.568 399.13) rotate(179.997)" fill="#2f2e41"/>
      <path id="Path_55" data-name="Path 55" d="M265.536,666.594l-8.047-.423a3.141,3.141,0,0,1-2.969-3.338l9.618-106.485,44.29,11.952,4.267-1.164L299.351,661.4a3.158,3.158,0,0,1-2.928,2.651l-8.674.4a3.141,3.141,0,0,1-3.314-3.226l1.572-56.58a1.047,1.047,0,0,0-2.072-.242l-15.158,59.679a3.122,3.122,0,0,1-3.07,2.5A.962.962,0,0,1,265.536,666.594Z" transform="translate(-202.893 -284.885)" fill="#2f2e41"/>
      <circle id="Ellipse_30" data-name="Ellipse 30" cx="16.504" cy="16.504" r="16.504" transform="translate(69.985 151.327)" fill="#ffb8b8"/>
      <path id="Path_56" data-name="Path 56" d="M265.5,461.523l1.814,39.155.656,14.246a3.119,3.119,0,0,0,2.066,2.805l42.561,15.416a3.008,3.008,0,0,0,1.075.189,3.12,3.12,0,0,0,3.134-3.217l-1.747-70.4A24.816,24.816,0,0,0,294.4,435.742c-.412-.062-.831-.126-1.249-.181a24.359,24.359,0,0,0-19.6,6.344,25.022,25.022,0,0,0-8.054,19.622Z" transform="translate(-206.486 -245.203)" fill="#ccc"/>
      <path id="Path_57" data-name="Path 57" d="M357.048,554.505a6.763,6.763,0,0,1-3.608-10.232l-14.433-19.192,12.454-.771,11.8,18.345a6.794,6.794,0,0,1-6.21,11.852Z" transform="translate(-230.609 -274.376)" fill="#ffb8b8"/>
      <path id="Path_58" data-name="Path 58" d="M338.986,517.063a3.12,3.12,0,0,1-1.707-1.692l-21.744-51.805a8.375,8.375,0,1,1,15.445-6.483l21.744,51.809a3.144,3.144,0,0,1-1.68,4.111l-9.653,4.051a3.119,3.119,0,0,1-2.4.011Z" transform="translate(-222.694 -250.639)" fill="#ccc"/>
      <path id="Path_59" data-name="Path 59" d="M298.327,525.752l20.884-39.988a3.278,3.278,0,0,1,4.418-1.386l30.314,15.832a3.278,3.278,0,0,1,1.386,4.418l-20.884,39.986A3.278,3.278,0,0,1,330.027,546l-30.314-15.832a3.278,3.278,0,0,1-1.386-4.418Z" transform="translate(-217.143 -261.155)" fill="#3f3d56"/>
      <path id="Path_60" data-name="Path 60" d="M304.475,511a6.763,6.763,0,0,0-10.427-3l-20.011-13.274L274,507.208,293.01,517.9a6.794,6.794,0,0,0,11.464-6.9Z" transform="translate(-209.285 -264.672)" fill="#ffb8b8"/>
      <path id="Path_61" data-name="Path 61" d="M269.879,497.186l-16.354-12.954A11.533,11.533,0,0,1,248.268,466l14.851-19.46a6.787,6.787,0,0,1,11.511,6.911l-11.749,19.218,17.266,8.189a3.141,3.141,0,0,1,1.309,4.516l-6.97,11.03a3.146,3.146,0,0,1-2.128,1.419l-.052.008A3.158,3.158,0,0,1,269.879,497.186Z" transform="translate(-199.99 -248.052)" fill="#ccc"/>
      <path id="Path_62" data-name="Path 62" d="M283.884,401.833a1.435,1.435,0,0,1,1.247-1.894,3.314,3.314,0,0,1,2.336,1.152,9.3,9.3,0,0,0,2.064,1.772,1.775,1.775,0,0,0,2.336-.422,3.249,3.249,0,0,0-.124-2.522,24.8,24.8,0,0,1-1.1-6.565,11.557,11.557,0,0,1,1.653-7.021c1.777-2.5,4.953-3.453,7.96-3.384s5.964,1,8.942,1.584c1.028.2,2.236.306,2.924-.491.731-.847.462-2.218.152-3.36-.806-2.968-1.663-6.038-3.538-8.435a12.7,12.7,0,0,0-8.1-4.563,19.446,19.446,0,0,0-9.046,1.027,24.258,24.258,0,0,0-11.882,8.275,19.646,19.646,0,0,0-3.748,14.515,17.919,17.919,0,0,0,6.643,11.326Z" transform="translate(-209.865 -222.95)" fill="#2f2e41"/>
      <path id="Path_63" data-name="Path 63" d="M587.123,711.7a30.907,30.907,0,0,1-11.471-48.039A30.911,30.911,0,1,0,617.7,708.322a30.89,30.89,0,0,1-30.575,3.377Z" transform="translate(-304.07 -320.086)" fill="#3f3d56"/>
    </g>
  </g>
</svg>
